<?xml version="1.0" encoding="utf-8" standalone="no"?>
<!DOCTYPE svg PUBLIC "-//W3C//DTD SVG 1.1//EN"
  "http://www.w3.org/Graphics/SVG/1.1/DTD/svg11.dtd">
<!-- Created with matplotlib (https://matplotlib.org/) -->
<svg height="345.6pt" version="1.1" viewBox="0 0 460.8 345.6" width="460.8pt" xmlns="http://www.w3.org/2000/svg" xmlns:xlink="http://www.w3.org/1999/xlink">
 <metadata>
  <rdf:RDF xmlns:cc="http://creativecommons.org/ns#" xmlns:dc="http://purl.org/dc/elements/1.1/" xmlns:rdf="http://www.w3.org/1999/02/22-rdf-syntax-ns#">
   <cc:Work>
    <dc:type rdf:resource="http://purl.org/dc/dcmitype/StillImage"/>
    <dc:date>2021-04-15T17:28:46.989303</dc:date>
    <dc:format>image/svg+xml</dc:format>
    <dc:creator>
     <cc:Agent>
      <dc:title>Matplotlib v3.3.2, https://matplotlib.org/</dc:title>
     </cc:Agent>
    </dc:creator>
   </cc:Work>
  </rdf:RDF>
 </metadata>
 <defs>
  <style type="text/css">*{stroke-linecap:butt;stroke-linejoin:round;}</style>
 </defs>
 <g id="figure_1">
  <g id="patch_1">
   <path d="M 0 345.6 
L 460.8 345.6 
L 460.8 0 
L 0 0 
z
" style="fill:#ffffff;"/>
  </g>
  <g id="axes_1">
   <g id="patch_2">
    <path d="M 57.6 307.584 
L 414.72 307.584 
L 414.72 41.472 
L 57.6 41.472 
z
" style="fill:#ffffff;"/>
   </g>
   <g id="matplotlib.axis_1">
    <g id="xtick_1">
     <g id="line2d_1">
      <defs>
       <path d="M 0 0 
L 0 3.5 
" id="m79725cf3c0" style="stroke:#000000;stroke-width:0.8;"/>
      </defs>
      <g>
       <use style="stroke:#000000;stroke-width:0.8;" x="57.6" xlink:href="#m79725cf3c0" y="307.584"/>
      </g>
     </g>
     <g id="text_1">
      <!-- 0.0 -->
      <g transform="translate(48.742969 322.182437)scale(0.1 -0.1)">
       <defs>
        <path d="M 46 36.53125 
Q 46 50.203125 43.4375 55.78125 
Q 40.875 61.375 34.8125 61.375 
Q 28.765625 61.375 26.171875 55.78125 
Q 23.578125 50.203125 23.578125 36.53125 
Q 23.578125 22.703125 26.171875 17.03125 
Q 28.765625 11.375 34.8125 11.375 
Q 40.828125 11.375 43.40625 17.03125 
Q 46 22.703125 46 36.53125 
z
M 64.796875 36.375 
Q 64.796875 18.265625 56.984375 8.421875 
Q 49.171875 -1.421875 34.8125 -1.421875 
Q 20.40625 -1.421875 12.59375 8.421875 
Q 4.78125 18.265625 4.78125 36.375 
Q 4.78125 54.546875 12.59375 64.375 
Q 20.40625 74.21875 34.8125 74.21875 
Q 49.171875 74.21875 56.984375 64.375 
Q 64.796875 54.546875 64.796875 36.375 
z
" id="DejaVuSans-Bold-48"/>
        <path d="M 10.203125 18.890625 
L 27.78125 18.890625 
L 27.78125 0 
L 10.203125 0 
z
" id="DejaVuSans-Bold-46"/>
       </defs>
       <use xlink:href="#DejaVuSans-Bold-48"/>
       <use x="69.580078" xlink:href="#DejaVuSans-Bold-46"/>
       <use x="107.568359" xlink:href="#DejaVuSans-Bold-48"/>
      </g>
     </g>
    </g>
    <g id="xtick_2">
     <g id="line2d_2">
      <g>
       <use style="stroke:#000000;stroke-width:0.8;" x="129.024" xlink:href="#m79725cf3c0" y="307.584"/>
      </g>
     </g>
     <g id="text_2">
      <!-- 0.2 -->
      <g transform="translate(120.166969 322.182437)scale(0.1 -0.1)">
       <defs>
        <path d="M 28.8125 13.8125 
L 60.890625 13.8125 
L 60.890625 0 
L 7.90625 0 
L 7.90625 13.8125 
L 34.515625 37.3125 
Q 38.09375 40.53125 39.796875 43.609375 
Q 41.5 46.6875 41.5 50 
Q 41.5 55.125 38.0625 58.25 
Q 34.625 61.375 28.90625 61.375 
Q 24.515625 61.375 19.28125 59.5 
Q 14.0625 57.625 8.109375 53.90625 
L 8.109375 69.921875 
Q 14.453125 72.015625 20.65625 73.109375 
Q 26.859375 74.21875 32.8125 74.21875 
Q 45.90625 74.21875 53.15625 68.453125 
Q 60.40625 62.703125 60.40625 52.390625 
Q 60.40625 46.4375 57.328125 41.28125 
Q 54.25 36.140625 44.390625 27.484375 
z
" id="DejaVuSans-Bold-50"/>
       </defs>
       <use xlink:href="#DejaVuSans-Bold-48"/>
       <use x="69.580078" xlink:href="#DejaVuSans-Bold-46"/>
       <use x="107.568359" xlink:href="#DejaVuSans-Bold-50"/>
      </g>
     </g>
    </g>
    <g id="xtick_3">
     <g id="line2d_3">
      <g>
       <use style="stroke:#000000;stroke-width:0.8;" x="200.448" xlink:href="#m79725cf3c0" y="307.584"/>
      </g>
     </g>
     <g id="text_3">
      <!-- 0.4 -->
      <g transform="translate(191.590969 322.182437)scale(0.1 -0.1)">
       <defs>
        <path d="M 36.8125 57.421875 
L 16.21875 26.90625 
L 36.8125 26.90625 
z
M 33.6875 72.90625 
L 54.59375 72.90625 
L 54.59375 26.90625 
L 64.984375 26.90625 
L 64.984375 13.28125 
L 54.59375 13.28125 
L 54.59375 0 
L 36.8125 0 
L 36.8125 13.28125 
L 4.5 13.28125 
L 4.5 29.390625 
z
" id="DejaVuSans-Bold-52"/>
       </defs>
       <use xlink:href="#DejaVuSans-Bold-48"/>
       <use x="69.580078" xlink:href="#DejaVuSans-Bold-46"/>
       <use x="107.568359" xlink:href="#DejaVuSans-Bold-52"/>
      </g>
     </g>
    </g>
    <g id="xtick_4">
     <g id="line2d_4">
      <g>
       <use style="stroke:#000000;stroke-width:0.8;" x="271.872" xlink:href="#m79725cf3c0" y="307.584"/>
      </g>
     </g>
     <g id="text_4">
      <!-- 0.6 -->
      <g transform="translate(263.014969 322.182437)scale(0.1 -0.1)">
       <defs>
        <path d="M 36.1875 35.984375 
Q 31.25 35.984375 28.78125 32.78125 
Q 26.3125 29.59375 26.3125 23.1875 
Q 26.3125 16.796875 28.78125 13.59375 
Q 31.25 10.40625 36.1875 10.40625 
Q 41.15625 10.40625 43.625 13.59375 
Q 46.09375 16.796875 46.09375 23.1875 
Q 46.09375 29.59375 43.625 32.78125 
Q 41.15625 35.984375 36.1875 35.984375 
z
M 59.421875 71 
L 59.421875 57.515625 
Q 54.78125 59.71875 50.671875 60.765625 
Q 46.578125 61.8125 42.671875 61.8125 
Q 34.28125 61.8125 29.59375 57.140625 
Q 24.90625 52.484375 24.125 43.3125 
Q 27.34375 45.703125 31.09375 46.890625 
Q 34.859375 48.09375 39.3125 48.09375 
Q 50.484375 48.09375 57.34375 41.546875 
Q 64.203125 35.015625 64.203125 24.421875 
Q 64.203125 12.703125 56.53125 5.640625 
Q 48.875 -1.421875 35.984375 -1.421875 
Q 21.78125 -1.421875 13.984375 8.171875 
Q 6.203125 17.78125 6.203125 35.40625 
Q 6.203125 53.46875 15.3125 63.796875 
Q 24.421875 74.125 40.28125 74.125 
Q 45.3125 74.125 50.046875 73.34375 
Q 54.78125 72.5625 59.421875 71 
z
" id="DejaVuSans-Bold-54"/>
       </defs>
       <use xlink:href="#DejaVuSans-Bold-48"/>
       <use x="69.580078" xlink:href="#DejaVuSans-Bold-46"/>
       <use x="107.568359" xlink:href="#DejaVuSans-Bold-54"/>
      </g>
     </g>
    </g>
    <g id="xtick_5">
     <g id="line2d_5">
      <g>
       <use style="stroke:#000000;stroke-width:0.8;" x="343.296" xlink:href="#m79725cf3c0" y="307.584"/>
      </g>
     </g>
     <g id="text_5">
      <!-- 0.8 -->
      <g transform="translate(334.438969 322.182437)scale(0.1 -0.1)">
       <defs>
        <path d="M 34.8125 32.625 
Q 29.546875 32.625 26.703125 29.734375 
Q 23.875 26.859375 23.875 21.484375 
Q 23.875 16.109375 26.703125 13.25 
Q 29.546875 10.40625 34.8125 10.40625 
Q 40.046875 10.40625 42.828125 13.25 
Q 45.609375 16.109375 45.609375 21.484375 
Q 45.609375 26.90625 42.828125 29.765625 
Q 40.046875 32.625 34.8125 32.625 
z
M 21.09375 38.8125 
Q 14.453125 40.828125 11.078125 44.96875 
Q 7.71875 49.125 7.71875 55.328125 
Q 7.71875 64.546875 14.59375 69.375 
Q 21.484375 74.21875 34.8125 74.21875 
Q 48.046875 74.21875 54.921875 69.40625 
Q 61.8125 64.59375 61.8125 55.328125 
Q 61.8125 49.125 58.421875 44.96875 
Q 55.03125 40.828125 48.390625 38.8125 
Q 55.8125 36.765625 59.59375 32.15625 
Q 63.375 27.546875 63.375 20.515625 
Q 63.375 9.671875 56.171875 4.125 
Q 48.96875 -1.421875 34.8125 -1.421875 
Q 20.609375 -1.421875 13.359375 4.125 
Q 6.109375 9.671875 6.109375 20.515625 
Q 6.109375 27.546875 9.890625 32.15625 
Q 13.671875 36.765625 21.09375 38.8125 
z
M 25.484375 53.421875 
Q 25.484375 49.078125 27.90625 46.734375 
Q 30.328125 44.390625 34.8125 44.390625 
Q 39.203125 44.390625 41.59375 46.734375 
Q 44 49.078125 44 53.421875 
Q 44 57.765625 41.59375 60.078125 
Q 39.203125 62.40625 34.8125 62.40625 
Q 30.328125 62.40625 27.90625 60.0625 
Q 25.484375 57.71875 25.484375 53.421875 
z
" id="DejaVuSans-Bold-56"/>
       </defs>
       <use xlink:href="#DejaVuSans-Bold-48"/>
       <use x="69.580078" xlink:href="#DejaVuSans-Bold-46"/>
       <use x="107.568359" xlink:href="#DejaVuSans-Bold-56"/>
      </g>
     </g>
    </g>
    <g id="xtick_6">
     <g id="line2d_6">
      <g>
       <use style="stroke:#000000;stroke-width:0.8;" x="414.72" xlink:href="#m79725cf3c0" y="307.584"/>
      </g>
     </g>
     <g id="text_6">
      <!-- 1.0 -->
      <g transform="translate(405.862969 322.182437)scale(0.1 -0.1)">
       <defs>
        <path d="M 11.71875 12.984375 
L 28.328125 12.984375 
L 28.328125 60.109375 
L 11.28125 56.59375 
L 11.28125 69.390625 
L 28.21875 72.90625 
L 46.09375 72.90625 
L 46.09375 12.984375 
L 62.703125 12.984375 
L 62.703125 0 
L 11.71875 0 
z
" id="DejaVuSans-Bold-49"/>
       </defs>
       <use xlink:href="#DejaVuSans-Bold-49"/>
       <use x="69.580078" xlink:href="#DejaVuSans-Bold-46"/>
       <use x="107.568359" xlink:href="#DejaVuSans-Bold-48"/>
      </g>
     </g>
    </g>
    <g id="text_7">
     <!-- False Positive Rate -->
     <g transform="translate(189.693594 335.860562)scale(0.1 -0.1)">
      <defs>
       <path d="M 9.8125 72.90625 
L 51.703125 72.90625 
L 51.703125 64.59375 
L 19.671875 64.59375 
L 19.671875 43.109375 
L 48.578125 43.109375 
L 48.578125 34.8125 
L 19.671875 34.8125 
L 19.671875 0 
L 9.8125 0 
z
" id="DejaVuSans-70"/>
       <path d="M 34.28125 27.484375 
Q 23.390625 27.484375 19.1875 25 
Q 14.984375 22.515625 14.984375 16.5 
Q 14.984375 11.71875 18.140625 8.90625 
Q 21.296875 6.109375 26.703125 6.109375 
Q 34.1875 6.109375 38.703125 11.40625 
Q 43.21875 16.703125 43.21875 25.484375 
L 43.21875 27.484375 
z
M 52.203125 31.203125 
L 52.203125 0 
L 43.21875 0 
L 43.21875 8.296875 
Q 40.140625 3.328125 35.546875 0.953125 
Q 30.953125 -1.421875 24.3125 -1.421875 
Q 15.921875 -1.421875 10.953125 3.296875 
Q 6 8.015625 6 15.921875 
Q 6 25.140625 12.171875 29.828125 
Q 18.359375 34.515625 30.609375 34.515625 
L 43.21875 34.515625 
L 43.21875 35.40625 
Q 43.21875 41.609375 39.140625 45 
Q 35.0625 48.390625 27.6875 48.390625 
Q 23 48.390625 18.546875 47.265625 
Q 14.109375 46.140625 10.015625 43.890625 
L 10.015625 52.203125 
Q 14.9375 54.109375 19.578125 55.046875 
Q 24.21875 56 28.609375 56 
Q 40.484375 56 46.34375 49.84375 
Q 52.203125 43.703125 52.203125 31.203125 
z
" id="DejaVuSans-97"/>
       <path d="M 9.421875 75.984375 
L 18.40625 75.984375 
L 18.40625 0 
L 9.421875 0 
z
" id="DejaVuSans-108"/>
       <path d="M 44.28125 53.078125 
L 44.28125 44.578125 
Q 40.484375 46.53125 36.375 47.5 
Q 32.28125 48.484375 27.875 48.484375 
Q 21.1875 48.484375 17.84375 46.4375 
Q 14.5 44.390625 14.5 40.28125 
Q 14.5 37.15625 16.890625 35.375 
Q 19.28125 33.59375 26.515625 31.984375 
L 29.59375 31.296875 
Q 39.15625 29.25 43.1875 25.515625 
Q 47.21875 21.78125 47.21875 15.09375 
Q 47.21875 7.46875 41.1875 3.015625 
Q 35.15625 -1.421875 24.609375 -1.421875 
Q 20.21875 -1.421875 15.453125 -0.5625 
Q 10.6875 0.296875 5.421875 2 
L 5.421875 11.28125 
Q 10.40625 8.6875 15.234375 7.390625 
Q 20.0625 6.109375 24.8125 6.109375 
Q 31.15625 6.109375 34.5625 8.28125 
Q 37.984375 10.453125 37.984375 14.40625 
Q 37.984375 18.0625 35.515625 20.015625 
Q 33.0625 21.96875 24.703125 23.78125 
L 21.578125 24.515625 
Q 13.234375 26.265625 9.515625 29.90625 
Q 5.8125 33.546875 5.8125 39.890625 
Q 5.8125 47.609375 11.28125 51.796875 
Q 16.75 56 26.8125 56 
Q 31.78125 56 36.171875 55.265625 
Q 40.578125 54.546875 44.28125 53.078125 
z
" id="DejaVuSans-115"/>
       <path d="M 56.203125 29.59375 
L 56.203125 25.203125 
L 14.890625 25.203125 
Q 15.484375 15.921875 20.484375 11.0625 
Q 25.484375 6.203125 34.421875 6.203125 
Q 39.59375 6.203125 44.453125 7.46875 
Q 49.3125 8.734375 54.109375 11.28125 
L 54.109375 2.78125 
Q 49.265625 0.734375 44.1875 -0.34375 
Q 39.109375 -1.421875 33.890625 -1.421875 
Q 20.796875 -1.421875 13.15625 6.1875 
Q 5.515625 13.8125 5.515625 26.8125 
Q 5.515625 40.234375 12.765625 48.109375 
Q 20.015625 56 32.328125 56 
Q 43.359375 56 49.78125 48.890625 
Q 56.203125 41.796875 56.203125 29.59375 
z
M 47.21875 32.234375 
Q 47.125 39.59375 43.09375 43.984375 
Q 39.0625 48.390625 32.421875 48.390625 
Q 24.90625 48.390625 20.390625 44.140625 
Q 15.875 39.890625 15.1875 32.171875 
z
" id="DejaVuSans-101"/>
       <path id="DejaVuSans-32"/>
       <path d="M 19.671875 64.796875 
L 19.671875 37.40625 
L 32.078125 37.40625 
Q 38.96875 37.40625 42.71875 40.96875 
Q 46.484375 44.53125 46.484375 51.125 
Q 46.484375 57.671875 42.71875 61.234375 
Q 38.96875 64.796875 32.078125 64.796875 
z
M 9.8125 72.90625 
L 32.078125 72.90625 
Q 44.34375 72.90625 50.609375 67.359375 
Q 56.890625 61.8125 56.890625 51.125 
Q 56.890625 40.328125 50.609375 34.8125 
Q 44.34375 29.296875 32.078125 29.296875 
L 19.671875 29.296875 
L 19.671875 0 
L 9.8125 0 
z
" id="DejaVuSans-80"/>
       <path d="M 30.609375 48.390625 
Q 23.390625 48.390625 19.1875 42.75 
Q 14.984375 37.109375 14.984375 27.296875 
Q 14.984375 17.484375 19.15625 11.84375 
Q 23.34375 6.203125 30.609375 6.203125 
Q 37.796875 6.203125 41.984375 11.859375 
Q 46.1875 17.53125 46.1875 27.296875 
Q 46.1875 37.015625 41.984375 42.703125 
Q 37.796875 48.390625 30.609375 48.390625 
z
M 30.609375 56 
Q 42.328125 56 49.015625 48.375 
Q 55.71875 40.765625 55.71875 27.296875 
Q 55.71875 13.875 49.015625 6.21875 
Q 42.328125 -1.421875 30.609375 -1.421875 
Q 18.84375 -1.421875 12.171875 6.21875 
Q 5.515625 13.875 5.515625 27.296875 
Q 5.515625 40.765625 12.171875 48.375 
Q 18.84375 56 30.609375 56 
z
" id="DejaVuSans-111"/>
       <path d="M 9.421875 54.6875 
L 18.40625 54.6875 
L 18.40625 0 
L 9.421875 0 
z
M 9.421875 75.984375 
L 18.40625 75.984375 
L 18.40625 64.59375 
L 9.421875 64.59375 
z
" id="DejaVuSans-105"/>
       <path d="M 18.3125 70.21875 
L 18.3125 54.6875 
L 36.8125 54.6875 
L 36.8125 47.703125 
L 18.3125 47.703125 
L 18.3125 18.015625 
Q 18.3125 11.328125 20.140625 9.421875 
Q 21.96875 7.515625 27.59375 7.515625 
L 36.8125 7.515625 
L 36.8125 0 
L 27.59375 0 
Q 17.1875 0 13.234375 3.875 
Q 9.28125 7.765625 9.28125 18.015625 
L 9.28125 47.703125 
L 2.6875 47.703125 
L 2.6875 54.6875 
L 9.28125 54.6875 
L 9.28125 70.21875 
z
" id="DejaVuSans-116"/>
       <path d="M 2.984375 54.6875 
L 12.5 54.6875 
L 29.59375 8.796875 
L 46.6875 54.6875 
L 56.203125 54.6875 
L 35.6875 0 
L 23.484375 0 
z
" id="DejaVuSans-118"/>
       <path d="M 44.390625 34.1875 
Q 47.5625 33.109375 50.5625 29.59375 
Q 53.5625 26.078125 56.59375 19.921875 
L 66.609375 0 
L 56 0 
L 46.6875 18.703125 
Q 43.0625 26.03125 39.671875 28.421875 
Q 36.28125 30.8125 30.421875 30.8125 
L 19.671875 30.8125 
L 19.671875 0 
L 9.8125 0 
L 9.8125 72.90625 
L 32.078125 72.90625 
Q 44.578125 72.90625 50.734375 67.671875 
Q 56.890625 62.453125 56.890625 51.90625 
Q 56.890625 45.015625 53.6875 40.46875 
Q 50.484375 35.9375 44.390625 34.1875 
z
M 19.671875 64.796875 
L 19.671875 38.921875 
L 32.078125 38.921875 
Q 39.203125 38.921875 42.84375 42.21875 
Q 46.484375 45.515625 46.484375 51.90625 
Q 46.484375 58.296875 42.84375 61.546875 
Q 39.203125 64.796875 32.078125 64.796875 
z
" id="DejaVuSans-82"/>
      </defs>
      <use xlink:href="#DejaVuSans-70"/>
      <use x="48.394531" xlink:href="#DejaVuSans-97"/>
      <use x="109.673828" xlink:href="#DejaVuSans-108"/>
      <use x="137.457031" xlink:href="#DejaVuSans-115"/>
      <use x="189.556641" xlink:href="#DejaVuSans-101"/>
      <use x="251.080078" xlink:href="#DejaVuSans-32"/>
      <use x="282.867188" xlink:href="#DejaVuSans-80"/>
      <use x="339.544922" xlink:href="#DejaVuSans-111"/>
      <use x="400.726562" xlink:href="#DejaVuSans-115"/>
      <use x="452.826172" xlink:href="#DejaVuSans-105"/>
      <use x="480.609375" xlink:href="#DejaVuSans-116"/>
      <use x="519.818359" xlink:href="#DejaVuSans-105"/>
      <use x="547.601562" xlink:href="#DejaVuSans-118"/>
      <use x="606.78125" xlink:href="#DejaVuSans-101"/>
      <use x="668.304688" xlink:href="#DejaVuSans-32"/>
      <use x="700.091797" xlink:href="#DejaVuSans-82"/>
      <use x="767.324219" xlink:href="#DejaVuSans-97"/>
      <use x="828.603516" xlink:href="#DejaVuSans-116"/>
      <use x="867.8125" xlink:href="#DejaVuSans-101"/>
     </g>
    </g>
   </g>
   <g id="matplotlib.axis_2">
    <g id="ytick_1">
     <g id="line2d_7">
      <defs>
       <path d="M 0 0 
L -3.5 0 
" id="m49bb3c36f8" style="stroke:#000000;stroke-width:0.8;"/>
      </defs>
      <g>
       <use style="stroke:#000000;stroke-width:0.8;" x="57.6" xlink:href="#m49bb3c36f8" y="307.584"/>
      </g>
     </g>
     <g id="text_8">
      <!-- 0.0 -->
      <g transform="translate(32.885937 311.383219)scale(0.1 -0.1)">
       <use xlink:href="#DejaVuSans-Bold-48"/>
       <use x="69.580078" xlink:href="#DejaVuSans-Bold-46"/>
       <use x="107.568359" xlink:href="#DejaVuSans-Bold-48"/>
      </g>
     </g>
    </g>
    <g id="ytick_2">
     <g id="line2d_8">
      <g>
       <use style="stroke:#000000;stroke-width:0.8;" x="57.6" xlink:href="#m49bb3c36f8" y="254.3616"/>
      </g>
     </g>
     <g id="text_9">
      <!-- 0.2 -->
      <g transform="translate(32.885937 258.160819)scale(0.1 -0.1)">
       <use xlink:href="#DejaVuSans-Bold-48"/>
       <use x="69.580078" xlink:href="#DejaVuSans-Bold-46"/>
       <use x="107.568359" xlink:href="#DejaVuSans-Bold-50"/>
      </g>
     </g>
    </g>
    <g id="ytick_3">
     <g id="line2d_9">
      <g>
       <use style="stroke:#000000;stroke-width:0.8;" x="57.6" xlink:href="#m49bb3c36f8" y="201.1392"/>
      </g>
     </g>
     <g id="text_10">
      <!-- 0.4 -->
      <g transform="translate(32.885937 204.938419)scale(0.1 -0.1)">
       <use xlink:href="#DejaVuSans-Bold-48"/>
       <use x="69.580078" xlink:href="#DejaVuSans-Bold-46"/>
       <use x="107.568359" xlink:href="#DejaVuSans-Bold-52"/>
      </g>
     </g>
    </g>
    <g id="ytick_4">
     <g id="line2d_10">
      <g>
       <use style="stroke:#000000;stroke-width:0.8;" x="57.6" xlink:href="#m49bb3c36f8" y="147.9168"/>
      </g>
     </g>
     <g id="text_11">
      <!-- 0.6 -->
      <g transform="translate(32.885937 151.716019)scale(0.1 -0.1)">
       <use xlink:href="#DejaVuSans-Bold-48"/>
       <use x="69.580078" xlink:href="#DejaVuSans-Bold-46"/>
       <use x="107.568359" xlink:href="#DejaVuSans-Bold-54"/>
      </g>
     </g>
    </g>
    <g id="ytick_5">
     <g id="line2d_11">
      <g>
       <use style="stroke:#000000;stroke-width:0.8;" x="57.6" xlink:href="#m49bb3c36f8" y="94.6944"/>
      </g>
     </g>
     <g id="text_12">
      <!-- 0.8 -->
      <g transform="translate(32.885937 98.493619)scale(0.1 -0.1)">
       <use xlink:href="#DejaVuSans-Bold-48"/>
       <use x="69.580078" xlink:href="#DejaVuSans-Bold-46"/>
       <use x="107.568359" xlink:href="#DejaVuSans-Bold-56"/>
      </g>
     </g>
    </g>
    <g id="ytick_6">
     <g id="line2d_12">
      <g>
       <use style="stroke:#000000;stroke-width:0.8;" x="57.6" xlink:href="#m49bb3c36f8" y="41.472"/>
      </g>
     </g>
     <g id="text_13">
      <!-- 1.0 -->
      <g transform="translate(32.885937 45.271219)scale(0.1 -0.1)">
       <use xlink:href="#DejaVuSans-Bold-49"/>
       <use x="69.580078" xlink:href="#DejaVuSans-Bold-46"/>
       <use x="107.568359" xlink:href="#DejaVuSans-Bold-48"/>
      </g>
     </g>
    </g>
    <g id="text_14">
     <!-- True Positive Rate -->
     <g transform="translate(26.80625 219.057687)rotate(-90)scale(0.1 -0.1)">
      <defs>
       <path d="M -0.296875 72.90625 
L 61.375 72.90625 
L 61.375 64.59375 
L 35.5 64.59375 
L 35.5 0 
L 25.59375 0 
L 25.59375 64.59375 
L -0.296875 64.59375 
z
" id="DejaVuSans-84"/>
       <path d="M 41.109375 46.296875 
Q 39.59375 47.171875 37.8125 47.578125 
Q 36.03125 48 33.890625 48 
Q 26.265625 48 22.1875 43.046875 
Q 18.109375 38.09375 18.109375 28.8125 
L 18.109375 0 
L 9.078125 0 
L 9.078125 54.6875 
L 18.109375 54.6875 
L 18.109375 46.1875 
Q 20.953125 51.171875 25.484375 53.578125 
Q 30.03125 56 36.53125 56 
Q 37.453125 56 38.578125 55.875 
Q 39.703125 55.765625 41.0625 55.515625 
z
" id="DejaVuSans-114"/>
       <path d="M 8.5 21.578125 
L 8.5 54.6875 
L 17.484375 54.6875 
L 17.484375 21.921875 
Q 17.484375 14.15625 20.5 10.265625 
Q 23.53125 6.390625 29.59375 6.390625 
Q 36.859375 6.390625 41.078125 11.03125 
Q 45.3125 15.671875 45.3125 23.6875 
L 45.3125 54.6875 
L 54.296875 54.6875 
L 54.296875 0 
L 45.3125 0 
L 45.3125 8.40625 
Q 42.046875 3.421875 37.71875 1 
Q 33.40625 -1.421875 27.6875 -1.421875 
Q 18.265625 -1.421875 13.375 4.4375 
Q 8.5 10.296875 8.5 21.578125 
z
M 31.109375 56 
z
" id="DejaVuSans-117"/>
      </defs>
      <use xlink:href="#DejaVuSans-84"/>
      <use x="46.333984" xlink:href="#DejaVuSans-114"/>
      <use x="87.447266" xlink:href="#DejaVuSans-117"/>
      <use x="150.826172" xlink:href="#DejaVuSans-101"/>
      <use x="212.349609" xlink:href="#DejaVuSans-32"/>
      <use x="244.136719" xlink:href="#DejaVuSans-80"/>
      <use x="300.814453" xlink:href="#DejaVuSans-111"/>
      <use x="361.996094" xlink:href="#DejaVuSans-115"/>
      <use x="414.095703" xlink:href="#DejaVuSans-105"/>
      <use x="441.878906" xlink:href="#DejaVuSans-116"/>
      <use x="481.087891" xlink:href="#DejaVuSans-105"/>
      <use x="508.871094" xlink:href="#DejaVuSans-118"/>
      <use x="568.050781" xlink:href="#DejaVuSans-101"/>
      <use x="629.574219" xlink:href="#DejaVuSans-32"/>
      <use x="661.361328" xlink:href="#DejaVuSans-82"/>
      <use x="728.59375" xlink:href="#DejaVuSans-97"/>
      <use x="789.873047" xlink:href="#DejaVuSans-116"/>
      <use x="829.082031" xlink:href="#DejaVuSans-101"/>
     </g>
    </g>
   </g>
   <g id="line2d_13">
    <path clip-path="url(#pe8319d71f3)" d="M 57.6 307.584 
L 414.72 41.472 
" style="fill:none;stroke:#ff0000;stroke-dasharray:5.55,2.4;stroke-dashoffset:0;stroke-width:1.5;"/>
   </g>
   <g id="line2d_14">
    <path clip-path="url(#pe8319d71f3)" d="M 57.6 307.584 
L 88.169472 307.477555 
L 88.169472 307.450944 
L 89.847936 307.344499 
L 89.847936 307.291277 
L 91.097856 307.184832 
L 91.16928 307.13161 
L 95.490432 307.025165 
L 95.490432 306.998554 
L 96.740352 306.91872 
L 96.740352 306.865498 
L 97.59744 306.785664 
L 97.668864 306.679219 
L 98.525952 306.625997 
L 98.597376 306.413107 
L 99.097344 306.333274 
L 99.097344 306.280051 
L 100.311552 306.173606 
L 100.418688 306.120384 
L 100.561536 306.067162 
L 100.668672 305.907494 
L 100.847232 305.80105 
L 100.847232 305.774438 
L 101.275776 305.667994 
L 101.275776 305.641382 
L 101.70432 305.534938 
L 101.811456 305.481715 
L 102.168576 305.37527 
L 102.168576 305.348659 
L 102.454272 305.242214 
L 102.454272 305.215603 
L 103.168512 305.109158 
L 103.275648 305.055936 
L 104.061312 304.949491 
L 104.097024 304.896269 
L 104.632704 304.789824 
L 104.704128 304.70999 
L 105.061248 304.630157 
L 105.132672 304.550323 
L 105.596928 304.47049 
L 105.63264 304.364045 
L 106.16832 304.2576 
L 106.275456 304.124544 
L 106.704 304.018099 
L 106.739712 303.964877 
L 107.77536 303.858432 
L 107.846784 303.778598 
L 108.418176 303.672154 
L 108.4896 303.565709 
L 109.096704 303.459264 
L 109.168128 303.272986 
L 109.953792 303.166541 
L 109.989504 303.113318 
L 110.775168 303.006874 
L 110.775168 302.953651 
L 110.953728 302.847206 
L 110.953728 302.820595 
L 111.34656 302.740762 
L 111.453696 302.581094 
L 112.132224 302.501261 
L 112.23936 302.421427 
L 112.489344 302.314982 
L 112.489344 302.288371 
L 113.096448 302.181926 
L 113.203584 302.075482 
L 113.524992 301.969037 
L 113.632128 301.80937 
L 113.882112 301.702925 
L 113.953536 301.516646 
L 114.274944 301.410202 
L 114.346368 301.250534 
L 114.453504 301.170701 
L 114.453504 301.037645 
L 114.667776 301.011034 
L 114.667776 300.824755 
L 115.060608 300.71831 
L 115.09632 300.665088 
L 115.524864 300.558643 
L 115.560576 300.505421 
L 116.024832 300.398976 
L 116.024832 300.345754 
L 116.5248 300.292531 
L 116.5248 300.239309 
L 116.631936 300.079642 
L 116.953344 299.973197 
L 116.953344 299.946586 
L 117.131904 299.840141 
L 117.23904 299.786918 
L 117.346176 299.680474 
L 117.346176 299.653862 
L 117.703296 299.547418 
L 117.810432 299.38775 
L 118.238976 299.307917 
L 118.346112 299.228083 
L 118.596096 299.174861 
L 118.631808 299.041805 
L 118.810368 298.961971 
L 118.84608 298.828915 
L 119.02464 298.802304 
L 119.131776 298.589414 
L 119.453184 298.48297 
L 119.524608 298.429747 
L 119.703168 298.323302 
L 119.703168 298.27008 
L 120.096 298.163635 
L 120.096 298.137024 
L 120.310272 298.030579 
L 120.310272 297.977357 
L 120.703104 297.870912 
L 120.81024 297.737856 
L 121.274496 297.631411 
L 121.381632 297.445133 
L 121.810176 297.338688 
L 121.810176 297.312077 
L 122.095872 297.205632 
L 122.203008 297.15241 
L 122.41728 297.045965 
L 122.488704 296.966131 
L 122.881536 296.859686 
L 122.988672 296.700019 
L 123.167232 296.593574 
L 123.167232 296.566963 
L 123.417216 296.48713 
L 123.524352 296.380685 
L 123.774336 296.27424 
L 123.881472 296.06135 
L 124.167168 296.008128 
L 124.167168 295.954906 
L 124.488576 295.82185 
L 124.73856 295.715405 
L 124.73856 295.688794 
L 124.988544 295.582349 
L 125.09568 295.422682 
L 125.488512 295.316237 
L 125.488512 295.289626 
L 125.667072 295.263014 
L 125.774208 295.103347 
L 126.024192 294.996902 
L 126.059904 294.890458 
L 126.238464 294.810624 
L 126.274176 294.650957 
L 126.417024 294.571123 
L 126.52416 294.438067 
L 126.809856 294.331622 
L 126.916992 294.145344 
L 126.988416 294.092122 
L 127.05984 293.959066 
L 127.309824 293.852621 
L 127.41696 293.719565 
L 127.666944 293.61312 
L 127.77408 293.506675 
L 127.988352 293.40023 
L 128.059776 293.347008 
L 128.381184 293.240563 
L 128.452608 293.107507 
L 128.738304 293.001062 
L 128.774016 292.894618 
L 129.488256 292.788173 
L 129.55968 292.708339 
L 129.631104 292.708339 
L 129.666816 292.49545 
L 129.9168 292.415616 
L 130.023936 292.255949 
L 130.166784 292.176115 
L 130.166784 292.096282 
L 130.381056 292.016448 
L 130.488192 291.83017 
L 130.523904 291.83017 
L 130.63104 291.643891 
L 130.773888 291.537446 
L 130.881024 291.324557 
L 131.023872 291.297946 
L 131.059584 291.16489 
L 131.34528 291.085056 
L 131.380992 290.952 
L 131.630976 290.872166 
L 131.666688 290.765722 
L 132.095232 290.659277 
L 132.202368 290.446387 
L 132.345216 290.339942 
L 132.380928 290.233498 
L 132.738048 290.127053 
L 132.845184 290.047219 
L 133.13088 289.940774 
L 133.238016 289.781107 
L 133.488 289.674662 
L 133.523712 289.62144 
L 133.84512 289.568218 
L 133.84512 289.488384 
L 134.166528 289.381939 
L 134.20224 289.222272 
L 134.595072 289.16905 
L 134.595072 288.95616 
L 135.166464 288.849715 
L 135.2736 288.690048 
L 135.45216 288.690048 
L 135.523584 288.450547 
L 135.844992 288.344102 
L 135.880704 288.264269 
L 136.023552 288.157824 
L 136.130688 287.918323 
L 136.34496 287.83849 
L 136.452096 287.652211 
L 136.737792 287.545766 
L 136.844928 287.386099 
L 137.094912 287.279654 
L 137.094912 287.226432 
L 137.487744 287.119987 
L 137.487744 287.093376 
L 137.702016 287.040154 
L 137.809152 286.720819 
L 138.094848 286.667597 
L 138.201984 286.534541 
L 138.380544 286.428096 
L 138.48768 286.29504 
L 138.737664 286.268429 
L 138.8448 286.08215 
L 139.344768 286.002317 
L 139.451904 285.816038 
L 139.594752 285.762816 
L 139.701888 285.496704 
L 139.91616 285.443482 
L 139.987584 285.310426 
L 140.130432 285.310426 
L 140.166144 285.097536 
L 140.558976 285.017702 
L 140.666112 284.884646 
L 140.80896 284.831424 
L 140.916096 284.591923 
L 141.094656 284.485478 
L 141.16608 284.405645 
L 141.451776 284.2992 
L 141.558912 284.166144 
L 141.773184 284.08631 
L 141.773184 284.033088 
L 142.201728 283.926643 
L 142.23744 283.873421 
L 142.487424 283.766976 
L 142.59456 283.713754 
L 142.630272 283.713754 
L 142.737408 283.42103 
L 142.844544 283.341197 
L 142.915968 283.261363 
L 143.058816 283.154918 
L 143.165952 283.021862 
L 143.66592 282.915418 
L 143.66592 282.888806 
L 144.094464 282.782362 
L 144.2016 282.622694 
L 144.38016 282.542861 
L 144.38016 282.489638 
L 144.630144 282.409805 
L 144.73728 282.170304 
L 145.022976 282.063859 
L 145.130112 281.797747 
L 145.308672 281.691302 
L 145.415808 281.584858 
L 145.487232 281.584858 
L 145.594368 281.42519 
L 145.80864 281.371968 
L 145.80864 281.238912 
L 146.058624 281.18569 
L 146.130048 280.9728 
L 146.34432 280.892966 
L 146.451456 280.733299 
L 146.737152 280.626854 
L 146.808576 280.573632 
L 147.022848 280.52041 
L 147.129984 280.280909 
L 147.344256 280.174464 
L 147.344256 280.147853 
L 147.808512 280.041408 
L 147.879936 279.828518 
L 148.272768 279.722074 
L 148.344192 279.64224 
L 148.594176 279.535795 
L 148.701312 279.322906 
L 148.84416 279.322906 
L 148.951296 279.083405 
L 149.20128 279.003571 
L 149.308416 278.631014 
L 150.165504 277.912512 
L 150.201216 277.752845 
L 150.665472 277.6464 
L 150.701184 277.539955 
L 151.058304 277.43351 
L 151.094016 277.353677 
L 151.415424 277.247232 
L 151.52256 277.114176 
L 151.808256 277.034342 
L 151.808256 276.927898 
L 152.093952 276.821453 
L 152.093952 276.794842 
L 152.343936 276.715008 
L 152.379648 276.555341 
L 152.843904 276.52873 
L 152.95104 276.156173 
L 153.272448 276.076339 
L 153.379584 275.969894 
L 153.522432 275.86345 
L 153.629568 275.570726 
L 153.808128 275.464282 
L 153.915264 275.357837 
L 154.236672 275.251392 
L 154.308096 275.19817 
L 154.73664 275.118336 
L 154.843776 275.011891 
L 155.165184 274.905446 
L 155.236608 274.852224 
L 155.486592 274.745779 
L 155.593728 274.612723 
L 155.736576 274.506278 
L 155.843712 274.346611 
L 156.057984 274.240166 
L 156.093696 274.160333 
L 156.379392 274.080499 
L 156.486528 273.947443 
L 156.557952 273.894221 
L 156.629376 273.787776 
L 156.772224 273.707942 
L 156.87936 273.548275 
L 157.272192 273.44183 
L 157.379328 273.255552 
L 157.486464 273.228941 
L 157.5936 273.016051 
L 158.057856 272.909606 
L 158.12928 272.829773 
L 158.593536 272.749939 
L 158.66496 272.616883 
L 159.343488 272.510438 
L 159.343488 272.483827 
L 159.807744 272.377382 
L 159.91488 272.084659 
L 160.022016 271.978214 
L 160.057728 271.898381 
L 160.379136 271.818547 
L 160.486272 271.632269 
L 160.593408 271.552435 
L 160.700544 271.312934 
L 160.950528 271.20649 
L 161.057664 271.046822 
L 161.307648 271.046822 
L 161.34336 270.78071 
L 161.52192 270.754099 
L 161.629056 270.487987 
L 161.736192 270.381542 
L 161.807616 270.11543 
L 162.129024 270.008986 
L 162.23616 269.822707 
L 162.557568 269.716262 
L 162.664704 269.556595 
L 162.878976 269.45015 
L 162.986112 269.263872 
L 163.164672 269.21065 
L 163.236096 269.024371 
L 163.593216 268.917926 
L 163.628928 268.78487 
L 164.02176 268.731648 
L 164.128896 268.571981 
L 164.20032 268.492147 
L 164.307456 268.385702 
L 164.450304 268.279258 
L 164.450304 268.226035 
L 164.771712 268.11959 
L 164.878848 267.933312 
L 165.307392 267.853478 
L 165.378816 267.640589 
L 165.700224 267.534144 
L 165.700224 267.480922 
L 166.093056 267.374477 
L 166.16448 267.321254 
L 166.307328 267.21481 
L 166.414464 266.948698 
L 166.628736 266.842253 
L 166.735872 266.602752 
L 166.985856 266.54953 
L 167.05728 266.230195 
L 167.128704 266.230195 
L 167.23584 265.910861 
L 167.450112 265.831027 
L 167.557248 265.67136 
L 167.664384 265.591526 
L 167.700096 265.485082 
L 167.914368 265.378637 
L 168.021504 265.192358 
L 168.3072 265.085914 
L 168.414336 264.926246 
L 168.592896 264.819802 
L 168.592896 264.79319 
L 168.985728 264.686746 
L 169.092864 264.500467 
L 169.2 264.447245 
L 169.271424 264.287578 
L 169.485696 264.181133 
L 169.592832 264.074688 
L 169.842816 264.021466 
L 169.949952 263.861798 
L 170.128512 263.835187 
L 170.235648 263.648909 
L 170.378496 263.622298 
L 170.485632 263.302963 
L 170.735616 263.249741 
L 170.80704 263.036851 
L 171.16416 262.930406 
L 171.271296 262.744128 
L 171.414144 262.664294 
L 171.52128 262.584461 
L 171.771264 262.504627 
L 171.842688 262.238515 
L 171.8784 262.238515 
L 172.199808 262.158682 
L 172.306944 261.972403 
L 172.378368 261.919181 
L 172.449792 261.653069 
L 172.699776 261.546624 
L 172.7712 261.413568 
L 173.271168 261.307123 
L 173.271168 261.280512 
L 173.342592 261.280512 
L 173.735424 261.174067 
L 173.806848 261.120845 
L 173.913984 261.041011 
L 174.02112 260.721677 
L 174.163968 260.641843 
L 174.19968 260.535398 
L 174.628224 260.428954 
L 174.73536 260.375731 
L 174.842496 260.322509 
L 174.949632 260.189453 
L 175.199616 260.083008 
L 175.306752 260.003174 
L 175.485312 259.923341 
L 175.592448 259.763674 
L 175.735296 259.657229 
L 175.735296 259.630618 
L 176.306688 259.550784 
L 176.306688 259.47095 
L 176.806656 259.391117 
L 176.842368 259.23145 
L 177.05664 259.151616 
L 177.128064 258.938726 
L 177.485184 258.832282 
L 177.485184 258.779059 
L 177.878016 258.672614 
L 177.878016 258.646003 
L 178.092288 258.539558 
L 178.199424 258.433114 
L 178.413696 258.326669 
L 178.413696 258.273446 
L 178.66368 258.193613 
L 178.699392 258.113779 
L 178.84224 258.033946 
L 178.913664 257.794445 
L 179.270784 257.688 
L 179.342208 257.554944 
L 179.55648 257.528333 
L 179.55648 257.421888 
L 179.806464 257.315443 
L 179.877888 257.155776 
L 180.020736 257.129165 
L 180.020736 257.02272 
L 180.199296 256.996109 
L 180.199296 256.916275 
L 180.306432 256.676774 
L 180.699264 256.57033 
L 180.8064 256.384051 
L 180.913536 256.277606 
L 180.98496 256.171162 
L 181.16352 256.091328 
L 181.270656 255.931661 
L 181.484928 255.825216 
L 181.556352 255.718771 
L 181.806336 255.612326 
L 181.842048 255.399437 
L 182.092032 255.319603 
L 182.199168 255.186547 
L 182.484864 255.106714 
L 182.592 254.973658 
L 182.877696 254.893824 
L 182.94912 254.654323 
L 183.056256 254.57449 
L 183.163392 254.388211 
L 183.341952 254.3616 
L 183.449088 254.228544 
L 183.913344 254.201933 
L 184.02048 254.015654 
L 184.234752 253.90921 
L 184.341888 253.802765 
L 184.484736 253.69632 
L 184.520448 253.589875 
L 184.73472 253.510042 
L 184.841856 253.24393 
L 185.198976 253.164096 
L 185.2704 253.057651 
L 185.556096 252.951206 
L 185.62752 252.738317 
L 186.34176 252.631872 
L 186.413184 252.472205 
L 186.556032 252.36576 
L 186.663168 252.259315 
L 186.806016 252.15287 
L 186.913152 252.046426 
L 187.448832 251.939981 
L 187.663104 251.70048 
L 187.663104 251.567424 
L 187.9488 251.48759 
L 188.055936 251.327923 
L 188.163072 251.327923 
L 188.270208 251.008589 
L 188.520192 250.902144 
L 188.555904 250.742477 
L 188.770176 250.662643 
L 188.877312 250.58281 
L 189.127296 250.502976 
L 189.234432 250.263475 
L 189.591552 250.15703 
L 189.662976 250.050586 
L 189.91296 249.997363 
L 189.91296 249.91753 
L 190.27008 249.864307 
L 190.341504 249.731251 
L 190.591488 249.651418 
L 190.698624 249.49175 
L 190.912896 249.438528 
L 191.020032 249.305472 
L 191.234304 249.25225 
L 191.34144 249.119194 
L 191.591424 249.012749 
L 191.69856 248.879693 
L 191.805696 248.773248 
L 191.87712 248.693414 
L 192.127104 248.58697 
L 192.23424 248.320858 
L 192.4128 248.214413 
L 192.519936 247.974912 
L 193.019904 247.868467 
L 193.12704 247.762022 
L 193.341312 247.655578 
L 193.412736 247.442688 
L 193.591296 247.336243 
L 193.698432 247.229798 
L 193.805568 247.176576 
L 193.912704 246.937075 
L 193.984128 246.857242 
L 194.01984 246.750797 
L 194.126976 246.750797 
L 194.234112 246.59113 
L 194.341248 246.564518 
L 194.37696 246.431462 
L 194.591232 246.37824 
L 194.662656 246.245184 
L 194.91264 246.16535 
L 194.984064 245.92585 
L 195.305472 245.819405 
L 195.412608 245.606515 
L 195.591168 245.50007 
L 195.698304 245.420237 
L 195.912576 245.340403 
L 195.984 245.021069 
L 196.055424 245.021069 
L 196.16256 244.781568 
L 196.376832 244.675123 
L 196.483968 244.59529 
L 196.555392 244.568678 
L 196.591104 244.409011 
L 196.841088 244.355789 
L 196.912512 244.196122 
L 197.162496 244.116288 
L 197.269632 243.850176 
L 197.376768 243.743731 
L 197.483904 243.50423 
L 197.841024 243.424397 
L 197.94816 243.344563 
L 198.805248 242.59945 
L 198.912384 242.359949 
L 199.01952 242.333338 
L 199.126656 242.120448 
L 199.269504 242.040614 
L 199.37664 241.747891 
L 199.519488 241.694669 
L 199.626624 241.455168 
L 199.805184 241.375334 
L 199.91232 241.135834 
L 200.162304 241.029389 
L 200.26944 240.949555 
L 200.555136 240.84311 
L 200.662272 240.736666 
L 200.912256 240.630221 
L 200.98368 240.497165 
L 201.126528 240.470554 
L 201.197952 240.337498 
L 201.3408 240.231053 
L 201.376512 240.17783 
L 201.51936 240.17783 
L 201.626496 239.93833 
L 201.912192 239.831885 
L 202.019328 239.752051 
L 202.05504 239.752051 
L 202.126464 239.592384 
L 202.305024 239.51255 
L 202.340736 239.432717 
L 202.555008 239.352883 
L 202.59072 239.166605 
L 203.019264 239.06016 
L 203.1264 238.820659 
L 203.233536 238.767437 
L 203.30496 238.60777 
L 203.626368 238.501325 
L 203.697792 238.341658 
L 203.84064 238.315046 
L 203.947776 237.995712 
L 204.304896 237.889267 
L 204.37632 237.782822 
L 204.483456 237.702989 
L 204.519168 237.596544 
L 204.876288 237.490099 
L 204.947712 237.383654 
L 205.09056 237.303821 
L 205.161984 237.223987 
L 205.411968 237.170765 
L 205.519104 236.957875 
L 205.769088 236.85143 
L 205.8048 236.718374 
L 206.090496 236.638541 
L 206.126208 236.452262 
L 206.233344 236.452262 
L 206.34048 236.265984 
L 206.376192 236.265984 
L 206.483328 235.999872 
L 206.626176 235.920038 
L 206.733312 235.494259 
L 206.769024 235.494259 
L 206.769024 235.361203 
L 207.05472 235.28137 
L 207.126144 234.935424 
L 207.23328 234.85559 
L 207.340416 234.669312 
L 207.554688 234.562867 
L 207.661824 234.243533 
L 207.733248 234.243533 
L 207.733248 234.163699 
L 207.804672 234.030643 
L 207.983232 233.924198 
L 208.090368 233.870976 
L 208.340352 233.791142 
L 208.340352 233.73792 
L 208.590336 233.631475 
L 208.697472 233.391974 
L 208.911744 233.28553 
L 209.01888 233.07264 
L 209.126016 232.966195 
L 209.161728 232.886362 
L 209.376 232.779917 
L 209.447424 232.62025 
L 209.661696 232.513805 
L 209.768832 232.327526 
L 210.304512 232.221082 
L 210.375936 232.141248 
L 210.483072 232.141248 
L 210.483072 231.901747 
L 210.733056 231.848525 
L 210.768768 231.635635 
L 210.98304 231.555802 
L 211.054464 231.342912 
L 211.375872 231.236467 
L 211.447296 231.183245 
L 211.804416 231.103411 
L 211.840128 230.943744 
L 212.018688 230.890522 
L 212.0544 230.757466 
L 212.090112 230.757466 
L 212.340096 230.677632 
L 212.375808 230.544576 
L 212.554368 230.464742 
L 212.661504 230.251853 
L 212.804352 230.172019 
L 212.804352 230.118797 
L 213.054336 230.065574 
L 213.054336 229.985741 
L 213.30432 229.879296 
L 213.411456 229.693018 
L 213.554304 229.639795 
L 213.625728 229.29385 
L 213.768576 229.214016 
L 213.875712 229.107571 
L 214.268544 229.001126 
L 214.37568 228.788237 
L 214.447104 228.681792 
L 214.55424 228.468902 
L 214.697088 228.389069 
L 214.7328 228.282624 
L 214.947072 228.176179 
L 215.054208 228.016512 
L 215.554176 227.910067 
L 215.6256 227.510899 
L 215.911296 227.404454 
L 216.018432 227.164954 
L 216.16128 227.058509 
L 216.232704 226.845619 
L 216.625536 226.765786 
L 216.661248 226.659341 
L 216.804096 226.63273 
L 216.911232 226.366618 
L 216.946944 226.366618 
L 217.018368 226.073894 
L 217.268352 225.994061 
L 217.304064 225.887616 
L 217.58976 225.807782 
L 217.696896 225.648115 
L 217.804032 225.594893 
L 217.839744 225.328781 
L 217.982592 225.30217 
L 218.054016 225.169114 
L 218.161152 225.115891 
L 218.161152 225.062669 
L 218.268288 224.849779 
L 218.518272 224.743334 
L 218.625408 224.557056 
L 218.768256 224.450611 
L 218.875392 224.184499 
L 219.232512 224.078054 
L 219.339648 223.944998 
L 219.696768 223.599053 
L 219.768192 223.412774 
L 219.875328 223.30633 
L 219.982464 223.173274 
L 220.0896 223.09344 
L 220.161024 222.986995 
L 220.303872 222.88055 
L 220.375296 222.774106 
L 220.62528 222.667661 
L 220.696704 222.534605 
L 221.053824 222.42816 
L 221.16096 222.241882 
L 221.303808 222.135437 
L 221.33952 222.082214 
L 221.553792 221.97577 
L 221.625216 221.922547 
L 221.803776 221.869325 
L 221.910912 221.416934 
L 222.018048 221.390323 
L 222.089472 221.204045 
L 222.196608 221.124211 
L 222.303744 220.778266 
L 222.518016 220.671821 
L 222.58944 220.43232 
L 222.982272 220.325875 
L 223.089408 220.192819 
L 223.410816 220.086374 
L 223.517952 219.926707 
L 223.83936 219.820262 
L 223.946496 219.740429 
L 224.01792 219.713818 
L 224.125056 219.55415 
L 224.19648 219.55415 
L 224.267904 219.394483 
L 224.37504 219.31465 
L 224.482176 219.208205 
L 224.767872 219.128371 
L 224.767872 219.10176 
L 224.91072 218.88887 
L 225.017856 218.755814 
L 225.124992 218.64937 
L 225.196416 218.489702 
L 225.410688 218.383258 
L 225.410688 218.356646 
L 225.696384 218.250202 
L 225.80352 217.98409 
L 225.910656 217.957478 
L 225.946368 217.744589 
L 226.267776 217.664755 
L 226.374912 217.31881 
L 226.446336 217.31881 
L 226.482048 216.999475 
L 226.732032 216.89303 
L 226.839168 216.573696 
L 226.910592 216.573696 
L 226.946304 216.334195 
L 227.196288 216.22775 
L 227.303424 216.068083 
L 227.481984 215.961638 
L 227.58912 215.748749 
L 227.696256 215.748749 
L 227.803392 215.402803 
L 227.910528 215.349581 
L 228.017664 215.136691 
L 228.446208 215.030246 
L 228.553344 214.710912 
L 228.874752 214.604467 
L 228.981888 214.418189 
L 229.124736 214.311744 
L 229.231872 213.99241 
L 229.446144 213.912576 
L 229.517568 213.726298 
L 229.838976 213.673075 
L 229.946112 213.540019 
L 230.196096 213.433574 
L 230.231808 213.300518 
L 230.517504 213.220685 
L 230.588928 213.061018 
L 230.8032 212.981184 
L 230.910336 212.66185 
L 231.017472 212.555405 
L 231.017472 212.528794 
L 231.410304 212.44896 
L 231.51744 212.315904 
L 231.838848 212.209459 
L 231.945984 212.076403 
L 232.124544 211.99657 
L 232.23168 211.517568 
L 232.374528 211.464346 
L 232.481664 211.251456 
L 232.695936 211.145011 
L 232.731648 211.065178 
L 233.017344 210.985344 
L 233.053056 210.772454 
L 233.12448 210.772454 
L 233.517312 210.373286 
L 233.624448 210.160397 
L 233.767296 210.133786 
L 233.874432 209.734618 
L 234.052992 209.681395 
L 234.088704 209.57495 
L 234.410112 209.468506 
L 234.481536 209.362061 
L 234.55296 209.362061 
L 234.660096 209.149171 
L 234.91008 209.042726 
L 235.017216 208.90967 
L 235.160064 208.829837 
L 235.195776 208.563725 
L 235.44576 208.537114 
L 235.44576 208.45728 
L 235.552896 208.324224 
L 235.731456 208.217779 
L 235.838592 208.137946 
L 236.088576 208.058112 
L 236.195712 207.925056 
L 236.481408 207.818611 
L 236.588544 207.658944 
L 236.69568 207.57911 
L 236.802816 207.312998 
L 236.87424 207.259776 
L 236.945664 207.153331 
L 237.23136 207.073498 
L 237.338496 206.993664 
L 237.40992 206.91383 
L 237.445632 206.807386 
L 237.624192 206.727552 
L 237.659904 206.594496 
L 237.981312 206.488051 
L 238.052736 206.408218 
L 238.267008 206.381606 
L 238.338432 206.115494 
L 238.445568 206.088883 
L 238.552704 205.663104 
L 238.65984 205.609882 
L 238.695552 205.450214 
L 238.874112 205.423603 
L 238.981248 205.077658 
L 239.052672 204.997824 
L 239.052672 204.91799 
L 239.266944 204.811546 
L 239.37408 204.731712 
L 239.55264 204.625267 
L 239.659776 204.4656 
L 239.874048 204.412378 
L 239.874048 204.332544 
L 240.195456 204.279322 
L 240.231168 204.01321 
L 240.552576 203.933376 
L 240.624 203.80032 
L 240.838272 203.773709 
L 240.838272 203.667264 
L 241.088256 203.58743 
L 241.15968 203.374541 
L 241.302528 203.34793 
L 241.373952 203.055206 
L 241.552512 202.975373 
L 241.623936 202.789094 
L 241.766784 202.68265 
L 241.838208 202.576205 
L 241.981056 202.496371 
L 242.088192 202.336704 
L 242.159616 202.25687 
L 242.266752 202.097203 
L 242.302464 202.097203 
L 242.302464 201.884314 
L 242.659584 201.80448 
L 242.76672 201.671424 
L 243.016704 201.644813 
L 243.088128 201.405312 
L 243.3024 201.325478 
L 243.409536 201.165811 
L 243.48096 201.059366 
L 243.588096 200.873088 
L 243.909504 200.766643 
L 244.01664 200.500531 
L 244.1952 200.447309 
L 244.230912 200.314253 
L 244.588032 200.26103 
L 244.695168 199.941696 
L 244.802304 199.835251 
L 244.873728 199.755418 
L 245.195136 199.648973 
L 245.26656 199.462694 
L 245.337984 199.462694 
L 245.44512 199.249805 
L 245.659392 199.14336 
L 245.766528 199.010304 
L 245.945088 198.903859 
L 246.052224 198.637747 
L 246.15936 198.611136 
L 246.15936 198.531302 
L 246.33792 198.424858 
L 246.373632 198.211968 
L 246.659328 198.132134 
L 246.730752 197.999078 
L 246.980736 197.892634 
L 247.087872 197.786189 
L 247.40928 197.706355 
L 247.480704 197.573299 
L 247.58784 197.493466 
L 247.694976 197.36041 
L 247.802112 197.333798 
L 247.909248 197.14752 
L 248.159232 197.041075 
L 248.230656 196.93463 
L 248.337792 196.908019 
L 248.373504 196.721741 
L 248.552064 196.668518 
L 248.587776 196.109683 
L 248.694912 196.109683 
L 248.730624 195.790349 
L 249.052032 195.683904 
L 249.123456 195.577459 
L 249.444864 195.471014 
L 249.552 195.284736 
L 249.623424 195.284736 
L 249.73056 195.071846 
L 249.944832 194.965402 
L 249.944832 194.93879 
L 250.194816 194.832346 
L 250.230528 194.672678 
L 250.551936 194.566234 
L 250.62336 194.459789 
L 250.694784 194.459789 
L 250.730496 194.27351 
L 250.944768 194.193677 
L 251.051904 193.874342 
L 251.266176 193.794509 
L 251.373312 193.60823 
L 251.444736 193.581619 
L 251.551872 193.235674 
L 251.623296 193.209062 
L 251.69472 192.889728 
L 251.837568 192.783283 
L 251.944704 192.49056 
L 252.123264 192.384115 
L 252.2304 192.27767 
L 252.373248 192.197837 
L 252.480384 192.064781 
L 252.730368 191.984947 
L 252.730368 191.931725 
L 252.980352 191.82528 
L 253.016064 191.585779 
L 253.230336 191.479334 
L 253.337472 191.239834 
L 253.587456 191.133389 
L 253.694592 190.680998 
L 253.873152 190.574554 
L 253.980288 190.201997 
L 254.230272 190.095552 
L 254.265984 189.989107 
L 254.515968 189.935885 
L 254.623104 189.37705 
L 254.837376 189.270605 
L 254.944512 189.004493 
L 255.123072 188.924659 
L 255.194496 188.738381 
L 255.26592 188.738381 
L 255.373056 188.339213 
L 255.44448 188.312602 
L 255.515904 188.099712 
L 255.694464 187.993267 
L 255.8016 187.780378 
L 255.873024 187.700544 
L 255.98016 187.407821 
L 256.194432 187.327987 
L 256.265856 187.088486 
L 256.51584 187.035264 
L 256.622976 186.848986 
L 256.944384 186.742541 
L 257.05152 186.50304 
L 257.301504 186.423206 
L 257.40864 186.263539 
L 257.5872 186.157094 
L 257.658624 185.997427 
L 258.051456 185.890982 
L 258.12288 185.757926 
L 258.30144 185.651482 
L 258.408576 185.38537 
L 258.515712 185.305536 
L 258.622848 185.066035 
L 258.765696 184.95959 
L 258.801408 184.906368 
L 259.01568 184.799923 
L 259.122816 184.666867 
L 259.301376 184.587034 
L 259.408512 184.480589 
L 259.515648 184.480589 
L 259.587072 184.134643 
L 259.801344 184.081421 
L 259.90848 183.921754 
L 259.944192 183.921754 
L 260.051328 183.602419 
L 260.301312 183.522586 
L 260.408448 183.203251 
L 260.44416 183.203251 
L 260.551296 182.990362 
L 260.80128 182.883917 
L 260.908416 182.617805 
L 261.1584 182.51136 
L 261.265536 182.351693 
L 261.408384 182.271859 
L 261.51552 182.05897 
L 261.836928 181.952525 
L 261.908352 181.872691 
L 262.015488 181.766246 
L 262.015488 181.739635 
L 262.194048 181.739635 
L 262.301184 181.553357 
L 262.336896 181.553357 
L 262.444032 181.260634 
L 262.694016 181.154189 
L 262.801152 181.021133 
L 263.051136 180.914688 
L 263.158272 180.675187 
L 263.515392 180.568742 
L 263.622528 180.462298 
L 263.65824 180.462298 
L 263.765376 180.169574 
L 264.051072 180.089741 
L 264.158208 179.930074 
L 264.265344 179.85024 
L 264.37248 179.584128 
L 264.479616 179.504294 
L 264.586752 179.158349 
L 264.801024 179.051904 
L 264.90816 178.51968 
L 264.979584 178.493069 
L 265.08672 178.226957 
L 265.300992 178.120512 
L 265.408128 178.040678 
L 265.550976 177.960845 
L 265.658112 177.508454 
L 265.693824 177.508454 
L 265.693824 177.428621 
L 265.80096 177.268954 
L 265.97952 177.162509 
L 266.086656 176.869786 
L 266.193792 176.763341 
L 266.300928 176.656896 
L 266.443776 176.577062 
L 266.550912 176.31095 
L 266.69376 176.231117 
L 266.69376 176.07145 
L 266.908032 175.965005 
L 266.979456 175.831949 
L 267.05088 175.831949 
L 267.158016 175.619059 
L 267.300864 175.592448 
L 267.408 175.113446 
L 267.479424 175.113446 
L 267.58656 174.767501 
L 267.76512 174.687667 
L 267.872256 174.474778 
L 267.94368 174.368333 
L 268.015104 174.048998 
L 268.3008 173.942554 
L 268.407936 173.64983 
L 268.586496 173.543386 
L 268.65792 173.357107 
L 268.83648 173.250662 
L 268.907904 173.19744 
L 269.086464 173.117606 
L 269.086464 173.090995 
L 269.1936 172.611994 
L 269.407872 172.53216 
L 269.515008 172.345882 
L 269.586432 172.345882 
L 269.693568 171.973325 
L 269.836416 171.893491 
L 269.872128 171.813658 
L 270.050688 171.813658 
L 270.122112 171.65399 
L 270.300672 171.600768 
L 270.300672 171.574157 
L 270.336384 171.467712 
L 270.657792 171.361267 
L 270.764928 171.095155 
L 270.943488 171.095155 
L 271.050624 170.669376 
L 271.800576 170.004096 
L 271.872 169.791206 
L 272.05056 169.684762 
L 272.157696 169.471872 
L 272.371968 169.41865 
L 272.443392 169.152538 
L 272.729088 169.046093 
L 272.836224 168.859814 
L 273.014784 168.75337 
L 273.12192 168.567091 
L 273.336192 168.54048 
L 273.407616 168.380813 
L 273.550464 168.32759 
L 273.6576 168.167923 
L 273.764736 168.141312 
L 273.764736 168.008256 
L 274.336128 167.928422 
L 274.443264 167.795366 
L 274.5504 167.688922 
L 274.657536 167.396198 
L 274.764672 167.316365 
L 274.800384 167.076864 
L 275.08608 166.970419 
L 275.193216 166.784141 
L 275.586048 166.730918 
L 275.693184 166.251917 
L 276.050304 166.145472 
L 276.121728 165.932582 
L 276.300288 165.826138 
L 276.407424 165.613248 
L 276.478848 165.560026 
L 276.585984 165.267302 
L 276.87168 165.160858 
L 276.978816 165.081024 
L 277.121664 164.974579 
L 277.2288 164.868134 
L 277.335936 164.788301 
L 277.335936 164.735078 
L 277.621632 164.628634 
L 277.728768 164.495578 
L 277.871616 164.442355 
L 277.978752 164.149632 
L 278.228736 164.043187 
L 278.335872 163.777075 
L 278.407296 163.777075 
L 278.407296 163.537574 
L 278.621568 163.510963 
L 278.728704 163.244851 
L 278.871552 163.165018 
L 278.871552 163.111795 
L 279.19296 163.031962 
L 279.300096 162.792461 
L 279.442944 162.739238 
L 279.442944 162.712627 
L 279.442944 162.55296 
L 279.621504 162.473126 
L 279.72864 162.180403 
L 280.050048 162.127181 
L 280.121472 161.967514 
L 280.550016 161.88768 
L 280.657152 161.382067 
L 280.835712 161.302234 
L 280.907136 161.195789 
L 281.121408 161.142566 
L 281.121408 161.00951 
L 281.371392 160.903066 
L 281.442816 160.743398 
L 281.585664 160.663565 
L 281.6928 160.477286 
L 281.799936 160.424064 
L 281.799936 160.370842 
L 281.87136 160.078118 
L 282.04992 160.024896 
L 282.121344 159.652339 
L 282.335616 159.599117 
L 282.40704 159.412838 
L 282.621312 159.333005 
L 282.728448 159.146726 
L 282.871296 159.066893 
L 282.978432 158.854003 
L 283.4784 158.747558 
L 283.585536 158.641114 
L 283.621248 158.641114 
L 283.65696 158.375002 
L 283.871232 158.268557 
L 283.942656 158.10889 
L 284.049792 158.002445 
L 284.121216 157.762944 
L 284.228352 157.68311 
L 284.264064 157.603277 
L 284.478336 157.496832 
L 284.514048 157.416998 
L 284.835456 157.310554 
L 284.942592 157.097664 
L 285.192576 156.991219 
L 285.192576 156.937997 
L 285.513984 156.858163 
L 285.62112 156.671885 
L 285.906816 156.618662 
L 286.013952 156.405773 
L 286.33536 156.325939 
L 286.442496 156.086438 
L 286.656768 155.979994 
L 286.763904 155.846938 
L 286.978176 155.740493 
L 287.085312 155.208269 
L 287.299584 155.101824 
L 287.40672 154.862323 
L 287.442432 154.862323 
L 287.513856 154.622822 
L 287.656704 154.542989 
L 287.728128 154.436544 
L 287.835264 154.383322 
L 287.906688 154.197043 
L 288.12096 154.090598 
L 288.156672 153.957542 
L 288.47808 153.851098 
L 288.549504 153.425318 
L 288.620928 153.425318 
L 288.728064 153.23904 
L 289.049472 153.159206 
L 289.156608 153.02615 
L 289.299456 152.999539 
L 289.406592 152.706816 
L 289.585152 152.626982 
L 289.692288 152.307648 
L 289.835136 152.281037 
L 289.870848 152.094758 
L 290.192256 152.014925 
L 290.26368 151.748813 
L 290.477952 151.642368 
L 290.585088 151.323034 
L 290.79936 151.216589 
L 290.906496 151.003699 
L 291.227904 151.003699 
L 291.33504 150.764198 
L 291.656448 150.657754 
L 291.727872 150.57792 
L 291.87072 150.471475 
L 291.906432 150.36503 
L 292.084992 150.258586 
L 292.192128 150.019085 
L 292.263552 150.019085 
L 292.370688 149.806195 
L 292.513536 149.69975 
L 292.58496 149.513472 
L 292.906368 149.407027 
L 292.94208 149.353805 
L 293.192064 149.24736 
L 293.263488 149.061082 
L 293.370624 148.954637 
L 293.442048 148.661914 
L 293.65632 148.555469 
L 293.727744 148.502246 
L 293.977728 148.422413 
L 294.084864 148.076467 
L 294.263424 147.970022 
L 294.334848 147.890189 
L 294.477696 147.836966 
L 294.584832 147.597466 
L 294.799104 147.491021 
L 294.90624 147.304742 
L 295.120512 147.224909 
L 295.191936 147.145075 
L 295.299072 147.145075 
L 295.370496 146.932186 
L 295.513344 146.932186 
L 295.549056 146.719296 
L 295.941888 146.612851 
L 296.049024 146.399962 
L 296.263296 146.37335 
L 296.33472 146.160461 
L 296.406144 146.160461 
L 296.441856 145.787904 
L 296.620416 145.70807 
L 296.727552 145.601626 
L 296.8704 145.495181 
L 296.906112 145.282291 
L 297.156096 145.202458 
L 297.22752 145.016179 
L 297.298944 145.016179 
L 297.370368 144.776678 
L 297.477504 144.776678 
L 297.58464 144.537178 
L 297.656064 144.430733 
L 297.7632 144.217843 
L 297.94176 144.111398 
L 297.94176 144.084787 
L 298.156032 144.004954 
L 298.227456 143.898509 
L 298.370304 143.845286 
L 298.406016 143.605786 
L 298.691712 143.499341 
L 298.798848 143.233229 
L 298.941696 143.180006 
L 299.048832 142.993728 
L 299.084544 142.993728 
L 299.19168 142.780838 
L 299.37024 142.674394 
L 299.477376 142.621171 
L 299.763072 142.541338 
L 299.834496 142.168781 
L 300.013056 142.115558 
L 300.120192 141.849446 
L 300.370176 141.769613 
L 300.405888 141.583334 
L 300.584448 141.556723 
L 300.655872 141.343834 
L 300.870144 141.264 
L 300.97728 140.997888 
L 301.262976 140.918054 
L 301.370112 140.705165 
L 301.69152 140.59872 
L 301.798656 140.359219 
L 301.941504 140.279386 
L 301.977216 140.172941 
L 302.191488 140.119718 
L 302.262912 139.960051 
L 302.441472 139.93344 
L 302.512896 139.640717 
L 302.620032 139.614106 
L 302.727168 139.427827 
L 302.76288 139.427827 
L 302.798592 139.26816 
L 303.048576 139.188326 
L 303.155712 139.081882 
L 303.227136 139.028659 
L 303.227136 138.895603 
L 303.405696 138.81577 
L 303.47712 138.656102 
L 303.727104 138.576269 
L 303.762816 138.496435 
L 303.941376 138.443213 
L 304.048512 138.310157 
L 304.084224 138.310157 
L 304.119936 138.044045 
L 304.477056 137.964211 
L 304.512768 137.777933 
L 304.869888 137.671488 
L 304.869888 137.565043 
L 305.155584 137.458598 
L 305.26272 137.27232 
L 305.655552 137.192486 
L 305.762688 136.979597 
L 305.905536 136.926374 
L 306.012672 136.686874 
L 306.084096 136.60704 
L 306.15552 136.500595 
L 306.298368 136.39415 
L 306.405504 136.207872 
L 306.548352 136.101427 
L 306.655488 135.888538 
L 307.04832 135.782093 
L 307.155456 135.649037 
L 307.548288 135.542592 
L 307.655424 135.329702 
L 307.798272 135.249869 
L 307.905408 135.143424 
L 308.191104 135.036979 
L 308.29824 134.877312 
L 308.369664 134.82409 
L 308.441088 134.318477 
L 308.619648 134.238643 
L 308.691072 134.105587 
L 308.869632 133.999142 
L 308.976768 133.626586 
L 309.048192 133.520141 
L 309.048192 133.49353 
L 309.3696 133.440307 
L 309.441024 133.06775 
L 309.54816 132.961306 
L 309.655296 132.721805 
L 309.762432 132.668582 
L 309.833856 132.375859 
L 310.190976 132.269414 
L 310.298112 131.976691 
L 310.476672 131.896858 
L 310.512384 131.710579 
L 310.583808 131.710579 
L 311.298048 131.07191 
L 311.405184 130.83241 
L 311.548032 130.725965 
L 311.655168 130.592909 
L 311.69088 130.592909 
L 311.798016 130.220352 
L 311.86944 130.220352 
L 311.940864 130.034074 
L 312.048 129.95424 
L 312.083712 129.874406 
L 312.369408 129.767962 
L 312.40512 129.688128 
L 312.58368 129.608294 
L 312.690816 129.342182 
L 312.869376 129.315571 
L 312.976512 129.022848 
L 313.29792 128.943014 
L 313.405056 128.676902 
L 313.65504 128.570458 
L 313.690752 128.437402 
L 313.940736 128.357568 
L 314.047872 128.224512 
L 314.155008 128.17129 
L 314.262144 128.011622 
L 314.333568 128.011622 
L 314.440704 127.772122 
L 314.619264 127.772122 
L 314.7264 127.532621 
L 314.976384 127.426176 
L 314.976384 127.372954 
L 315.26208 127.29312 
L 315.369216 126.893952 
L 315.44064 126.787507 
L 315.512064 126.601229 
L 315.690624 126.494784 
L 315.726336 126.41495 
L 315.79776 126.41495 
L 316.119168 126.335117 
L 316.226304 126.228672 
L 316.262016 126.228672 
L 316.297728 125.96256 
L 316.583424 125.856115 
L 316.69056 125.669837 
L 316.833408 125.643226 
L 316.940544 125.403725 
L 317.154816 125.29728 
L 317.261952 125.111002 
L 317.333376 125.004557 
L 317.333376 124.977946 
L 317.547648 124.871501 
L 317.654784 124.711834 
L 317.76192 124.605389 
L 317.869056 124.365888 
L 318.083328 124.259443 
L 318.083328 124.232832 
L 318.2976 124.152998 
L 318.369024 123.993331 
L 318.511872 123.913498 
L 318.619008 123.567552 
L 318.65472 123.567552 
L 318.761856 123.328051 
L 318.904704 123.274829 
L 319.01184 123.008717 
L 319.118976 122.902272 
L 319.226112 122.503104 
L 319.404672 122.396659 
L 319.511808 122.210381 
L 319.618944 122.130547 
L 319.72608 121.837824 
L 319.797504 121.784602 
L 319.90464 121.651546 
L 320.047488 121.624934 
L 320.154624 121.412045 
L 320.583168 121.332211 
L 320.690304 121.172544 
L 320.940288 121.09271 
L 321.011712 120.826598 
L 321.083136 120.826598 
L 321.190272 120.454042 
L 321.261696 120.400819 
L 321.297408 120.267763 
L 321.547392 120.267763 
L 321.654528 119.948429 
L 321.761664 119.868595 
L 321.8688 119.655706 
L 322.190208 119.549261 
L 322.297344 119.469427 
L 322.475904 119.362982 
L 322.511616 118.937203 
L 322.725888 118.85737 
L 322.833024 118.591258 
L 323.047296 118.511424 
L 323.11872 118.19209 
L 323.29728 118.19209 
L 323.368704 117.872755 
L 323.582976 117.792922 
L 323.6544 117.52681 
L 323.761536 117.473587 
L 323.761536 117.340531 
L 324.047232 117.234086 
L 324.118656 116.755085 
L 324.261504 116.701862 
L 324.36864 116.462362 
L 324.5472 116.409139 
L 324.5472 116.329306 
L 324.690048 116.329306 
L 324.761472 115.930138 
L 325.118592 115.823693 
L 325.225728 115.451136 
L 325.511424 115.344691 
L 325.725696 115.051968 
L 325.832832 114.892301 
L 325.939968 114.785856 
L 326.011392 114.706022 
L 326.261376 114.679411 
L 326.297088 114.519744 
L 326.51136 114.413299 
L 326.618496 114.333466 
L 326.725632 114.280243 
L 326.832768 114.120576 
L 327.011328 114.014131 
L 327.118464 113.748019 
L 327.332736 113.641574 
L 327.368448 113.588352 
L 327.475584 113.588352 
L 327.58272 113.32224 
L 327.904128 113.215795 
L 328.011264 113.002906 
L 328.225536 112.923072 
L 328.261248 112.736794 
L 328.404096 112.65696 
L 328.511232 112.364237 
L 328.618368 112.364237 
L 328.65408 112.098125 
L 328.975488 111.99168 
L 329.082624 111.832013 
L 329.18976 111.77879 
L 329.18976 111.725568 
L 329.261184 111.486067 
L 329.404032 111.379622 
L 329.511168 111.246566 
L 329.618304 111.219955 
L 329.72544 111.007066 
L 329.868288 110.927232 
L 329.939712 110.767565 
L 330.011136 110.767565 
L 330.011136 110.634509 
L 330.332544 110.581286 
L 330.332544 110.501453 
L 330.61824 110.395008 
L 330.725376 110.182118 
L 330.939648 110.075674 
L 331.011072 109.889395 
L 331.118208 109.889395 
L 331.225344 109.490227 
L 331.439616 109.383782 
L 331.546752 109.064448 
L 331.6896 109.011226 
L 331.796736 108.798336 
L 331.975296 108.691891 
L 332.296704 108.479002 
L 332.5824 108.399168 
L 332.689536 108.186278 
L 332.832384 108.079834 
L 332.93952 107.813722 
L 333.11808 107.760499 
L 333.189504 107.361331 
L 333.403776 107.254886 
L 333.4752 106.962163 
L 333.83232 106.855718 
L 333.939456 106.429939 
L 333.975168 106.429939 
L 334.046592 106.083994 
L 334.403712 105.977549 
L 334.510848 105.844493 
L 334.796544 105.764659 
L 334.90368 105.631603 
L 335.010816 105.55177 
L 335.117952 105.232435 
L 335.332224 105.179213 
L 335.43936 104.966323 
L 335.582208 104.88649 
L 335.653632 104.700211 
L 336.010752 104.593766 
L 336.117888 104.46071 
L 336.189312 104.407488 
L 336.296448 104.247821 
L 336.51072 104.167987 
L 336.617856 103.875264 
L 336.724992 103.822042 
L 336.724992 103.688986 
L 337.010688 103.582541 
L 337.117824 103.422874 
L 337.22496 103.34304 
L 337.296384 103.023706 
L 337.439232 102.917261 
L 337.546368 102.810816 
L 337.653504 102.730982 
L 337.76064 102.651149 
L 337.867776 102.544704 
L 337.974912 102.411648 
L 338.082048 102.331814 
L 338.153472 102.198758 
L 338.332032 102.092314 
L 338.439168 101.852813 
L 338.510592 101.746368 
L 338.546304 101.693146 
L 338.832 101.613312 
L 338.903424 101.480256 
L 339.117696 101.400422 
L 339.224832 101.214144 
L 339.36768 101.160922 
L 339.474816 100.814976 
L 339.831936 100.708531 
L 339.939072 100.655309 
L 340.224768 100.575475 
L 340.296192 100.46903 
L 340.367616 100.46903 
L 340.367616 100.362586 
L 340.474752 99.990029 
L 340.581888 99.883584 
L 340.6176 99.80375 
L 340.79616 99.750528 
L 340.903296 99.590861 
L 341.046144 99.484416 
L 341.15328 99.35136 
L 341.438976 99.244915 
L 341.5104 99.058637 
L 341.86752 98.952192 
L 341.938944 98.792525 
L 342.153216 98.739302 
L 342.22464 98.632858 
L 342.474624 98.553024 
L 342.546048 98.366746 
L 342.724608 98.286912 
L 342.831744 97.728077 
L 342.93888 97.728077 
L 343.046016 97.435354 
L 343.081728 97.435354 
L 343.081728 97.35552 
L 343.188864 97.275686 
L 343.47456 97.036186 
L 343.581696 96.770074 
L 343.760256 96.663629 
L 343.83168 96.291072 
L 344.117376 96.211238 
L 344.1888 96.078182 
L 344.403072 95.998349 
L 344.403072 95.891904 
L 344.688768 95.785459 
L 344.795904 95.732237 
L 345.0816 95.625792 
L 345.188736 95.492736 
L 345.26016 95.386291 
L 345.367296 95.120179 
L 345.510144 95.040346 
L 345.545856 94.854067 
L 345.79584 94.747622 
L 345.902976 94.508122 
L 346.260096 94.401677 
L 346.33152 94.24201 
L 346.402944 94.24201 
L 346.474368 94.02912 
L 346.581504 93.922675 
L 346.68864 93.629952 
L 346.8672 93.603341 
L 346.974336 93.310618 
L 347.22432 93.230784 
L 347.22432 93.071117 
L 347.545728 92.964672 
L 347.652864 92.858227 
L 347.795712 92.778394 
L 347.831424 92.618726 
L 348.081408 92.538893 
L 348.11712 92.432448 
L 348.438528 92.352614 
L 348.47424 92.272781 
L 348.688512 92.166336 
L 348.724224 92.086502 
L 348.83136 92.086502 
L 348.938496 91.900224 
L 349.00992 91.900224 
L 349.117056 91.58089 
L 349.402752 91.474445 
L 349.509888 91.341389 
L 349.688448 91.234944 
L 349.795584 90.995443 
L 349.974144 90.942221 
L 349.974144 90.862387 
L 350.295552 90.782554 
L 350.366976 90.649498 
L 350.4384 90.649498 
L 350.545536 90.330163 
L 350.652672 90.223718 
L 350.759808 90.090662 
L 351.081216 90.03744 
L 351.116928 89.877773 
L 351.366912 89.771328 
L 351.438336 89.744717 
L 351.50976 89.744717 
L 351.616896 89.531827 
L 351.68832 89.478605 
L 351.795456 89.265715 
L 351.902592 89.15927 
L 352.009728 89.079437 
L 352.152576 88.999603 
L 352.152576 88.813325 
L 352.438272 88.70688 
L 352.545408 88.573824 
L 352.795392 88.49399 
L 352.902528 88.307712 
L 352.973952 88.25449 
L 353.081088 88.068211 
L 353.259648 87.961766 
L 353.366784 87.642432 
L 353.509632 87.535987 
L 353.581056 87.402931 
L 353.83104 87.296486 
L 353.866752 87.110208 
L 354.081024 87.030374 
L 354.18816 86.817485 
L 354.54528 86.737651 
L 354.652416 86.391706 
L 354.759552 86.311872 
L 354.866688 86.098982 
L 354.938112 86.04576 
L 355.045248 85.806259 
L 355.08096 85.806259 
L 355.152384 85.59337 
L 355.223808 85.59337 
L 355.223808 85.407091 
L 355.580928 85.327258 
L 355.688064 85.16759 
L 355.7952 85.061146 
L 355.902336 84.848256 
L 355.938048 84.848256 
L 356.045184 84.475699 
L 356.188032 84.369254 
L 356.188032 84.289421 
L 356.33088 84.289421 
L 356.438016 84.076531 
L 356.580864 83.970086 
L 356.688 83.863642 
L 356.759424 83.783808 
L 356.759424 83.677363 
L 356.973696 83.570918 
L 357.080832 83.198362 
L 357.152256 83.198362 
L 357.22368 82.825805 
L 357.366528 82.745971 
L 357.473664 82.612915 
L 357.902208 82.50647 
L 357.902208 82.240358 
L 358.045056 82.240358 
L 358.152192 81.84119 
L 358.29504 81.734746 
L 358.402176 81.575078 
L 358.509312 81.495245 
L 358.616448 81.202522 
L 358.687872 81.17591 
L 358.795008 80.856576 
L 358.973568 80.776742 
L 359.080704 80.590464 
L 359.437824 80.484019 
L 359.54496 80.297741 
L 359.72352 80.244518 
L 359.72352 79.978406 
L 360.044928 79.951795 
L 360.116352 79.659072 
L 360.330624 79.552627 
L 360.43776 79.259904 
L 360.79488 79.153459 
L 360.866304 79.047014 
L 361.080576 78.94057 
L 361.33056 78.647846 
L 361.401984 78.434957 
L 361.50912 78.408346 
L 361.50912 78.301901 
L 361.86624 78.222067 
L 361.973376 78.115622 
L 362.116224 78.009178 
L 362.22336 77.796288 
L 362.509056 77.689843 
L 362.544768 77.61001 
L 362.75904 77.583398 
L 362.794752 77.343898 
L 363.044736 77.237453 
L 363.151872 77.051174 
L 363.223296 76.971341 
L 363.330432 76.758451 
L 363.401856 76.652006 
L 363.508992 76.412506 
L 363.687552 76.306061 
L 363.758976 76.226227 
L 363.8304 76.226227 
L 363.901824 75.933504 
L 364.116096 75.827059 
L 364.223232 75.694003 
L 364.473216 75.587558 
L 364.580352 75.40128 
L 364.616064 75.40128 
L 364.7232 75.18839 
L 364.794624 75.135168 
L 364.90176 74.869056 
L 365.008896 74.789222 
L 365.116032 74.629555 
L 365.330304 74.576333 
L 365.401728 74.390054 
L 365.508864 74.363443 
L 365.616 74.097331 
L 365.758848 73.990886 
L 365.830272 73.85783 
L 365.97312 73.85783 
L 366.044544 73.61833 
L 366.401664 73.511885 
L 366.473088 73.325606 
L 366.723072 73.272384 
L 366.794496 73.032883 
L 367.008768 72.95305 
L 367.080192 72.819994 
L 367.258752 72.766771 
L 367.365888 72.580493 
L 367.473024 72.474048 
L 367.544448 72.367603 
L 367.723008 72.340992 
L 367.830144 72.048269 
L 368.11584 71.941824 
L 368.222976 71.808768 
L 368.2944 71.782157 
L 368.401536 71.569267 
L 368.65152 71.489434 
L 368.758656 71.223322 
L 368.865792 71.19671 
L 368.937216 70.824154 
L 369.151488 70.717709 
L 369.258624 70.451597 
L 369.36576 70.371763 
L 369.472896 70.07904 
L 369.794304 69.972595 
L 369.90144 69.733094 
L 369.972864 69.733094 
L 369.972864 69.573427 
L 370.151424 69.573427 
L 370.222848 69.280704 
L 370.472832 69.174259 
L 370.544256 68.96137 
L 370.722816 68.934758 
L 370.829952 68.668646 
L 370.9728 68.562202 
L 371.044224 68.482368 
L 371.187072 68.375923 
L 371.294208 68.136422 
L 371.401344 68.029978 
L 371.50848 67.923533 
L 371.758464 67.843699 
L 371.8656 67.41792 
L 372.115584 67.311475 
L 372.187008 67.178419 
L 372.40128 67.098586 
L 372.472704 66.805862 
L 372.686976 66.779251 
L 372.794112 66.247027 
L 372.901248 66.140582 
L 372.93696 65.847859 
L 373.222656 65.768026 
L 373.29408 65.581747 
L 373.508352 65.501914 
L 373.615488 65.076134 
L 373.722624 64.96969 
L 373.82976 64.889856 
L 374.044032 64.783411 
L 374.151168 64.597133 
L 374.329728 64.490688 
L 374.436864 64.437466 
L 374.686848 64.384243 
L 374.793984 64.171354 
L 375.07968 64.064909 
L 375.151104 63.825408 
L 375.365376 63.772186 
L 375.472512 63.452851 
L 375.579648 63.399629 
L 375.651072 63.266573 
L 376.043904 63.160128 
L 376.115328 62.840794 
L 376.365312 62.734349 
L 376.472448 62.574682 
L 376.543872 62.574682 
L 376.651008 62.30857 
L 376.936704 62.202125 
L 377.04384 61.909402 
L 377.115264 61.829568 
L 377.150976 61.563456 
L 377.365248 61.483622 
L 377.436672 61.244122 
L 377.686656 61.137677 
L 377.793792 60.951398 
L 378.008064 60.871565 
L 378.1152 60.605453 
L 378.329472 60.525619 
L 378.365184 60.419174 
L 378.65088 60.31273 
L 378.758016 60.179674 
L 378.865152 60.179674 
L 378.972288 59.727283 
L 379.079424 59.64745 
L 379.115136 59.328115 
L 379.329408 59.301504 
L 379.36512 59.141837 
L 379.507968 59.115226 
L 379.54368 58.928947 
L 379.72224 58.822502 
L 379.829376 58.662835 
L 379.865088 58.662835 
L 379.972224 58.423334 
L 380.25792 58.31689 
L 380.365056 58.183834 
L 380.722176 58.130611 
L 380.829312 57.970944 
L 381.079296 57.917722 
L 381.115008 57.758054 
L 381.32928 57.704832 
L 381.32928 57.624998 
L 381.722112 57.598387 
L 381.829248 57.385498 
L 381.936384 57.305664 
L 382.007808 57.066163 
L 382.114944 57.066163 
L 382.150656 56.879885 
L 382.472064 56.77344 
L 382.5792 56.693606 
L 383.043456 56.587162 
L 383.043456 56.56055 
L 383.186304 56.56055 
L 383.29344 56.32105 
L 383.400576 56.267827 
L 383.472 56.081549 
L 383.65056 56.001715 
L 383.757696 55.735603 
L 383.936256 55.629158 
L 383.971968 55.549325 
L 384.329088 55.44288 
L 384.3648 55.363046 
L 384.650496 55.256602 
L 384.72192 55.096934 
L 384.936192 55.043712 
L 384.971904 54.910656 
L 385.2576 54.804211 
L 385.364736 54.617933 
L 385.471872 54.538099 
L 385.579008 54.32521 
L 385.721856 54.218765 
L 385.828992 54.138931 
L 385.97184 54.059098 
L 386.078976 53.926042 
L 386.221824 53.819597 
L 386.32896 53.340595 
L 386.436096 53.260762 
L 386.543232 53.101094 
L 386.721792 53.047872 
L 386.828928 52.861594 
L 386.86464 52.861594 
L 386.971776 52.675315 
L 387.186048 52.56887 
L 387.293184 52.515648 
L 387.471744 52.489037 
L 387.57888 52.302758 
L 387.75744 52.249536 
L 387.75744 52.222925 
L 387.864576 52.11648 
L 388.221696 52.036646 
L 388.29312 51.90359 
L 388.578816 51.797146 
L 388.685952 51.66409 
L 389.078784 51.584256 
L 389.078784 51.504422 
L 389.221632 51.504422 
L 389.328768 51.264922 
L 389.36448 51.264922 
L 389.435904 50.99881 
L 389.54304 50.972198 
L 389.650176 50.626253 
L 389.828736 50.546419 
L 389.90016 50.413363 
L 390.685824 50.306918 
L 390.757248 50.227085 
L 390.900096 50.200474 
L 390.935808 50.067418 
L 391.32864 49.960973 
L 391.32864 49.90775 
L 391.68576 49.801306 
L 391.757184 49.508582 
L 391.900032 49.428749 
L 392.007168 49.215859 
L 392.257152 49.162637 
L 392.292864 49.00297 
L 392.542848 48.923136 
L 392.542848 48.869914 
L 392.75712 48.816691 
L 392.864256 48.630413 
L 393.007104 48.550579 
L 393.11424 48.390912 
L 393.328512 48.284467 
L 393.364224 48.151411 
L 393.542784 48.071578 
L 393.614208 47.885299 
L 393.757056 47.805466 
L 393.792768 47.699021 
L 394.257024 47.592576 
L 394.292736 47.512742 
L 394.578432 47.406298 
L 394.685568 47.299853 
L 395.042688 47.193408 
L 395.149824 47.060352 
L 395.399808 46.953907 
L 395.43552 46.847462 
L 395.756928 46.741018 
L 395.756928 46.501517 
L 396.14976 46.474906 
L 396.256896 46.235405 
L 396.435456 46.155571 
L 396.542592 45.91607 
L 396.792576 45.809626 
L 396.864 45.729792 
L 397.04256 45.623347 
L 397.149696 45.330624 
L 397.328256 45.25079 
L 397.328256 45.091123 
L 397.792512 44.984678 
L 397.863936 44.904845 
L 398.042496 44.7984 
L 398.149632 44.691955 
L 398.221056 44.58551 
L 398.221056 44.558899 
L 398.613888 44.452454 
L 398.721024 44.399232 
L 399.113856 44.292787 
L 399.149568 44.239565 
L 399.578112 44.13312 
L 399.578112 44.106509 
L 399.863808 44.000064 
L 399.863808 43.973453 
L 400.149504 43.867008 
L 400.220928 43.760563 
L 400.4352 43.654118 
L 400.4352 43.574285 
L 400.828032 43.46784 
L 400.935168 43.414618 
L 401.185152 43.308173 
L 401.292288 43.228339 
L 401.756544 43.148506 
L 401.86368 42.962227 
L 402.077952 42.855782 
L 402.149376 42.696115 
L 402.327936 42.58967 
L 402.327936 42.483226 
L 403.64928 42.376781 
L 403.64928 42.35017 
L 404.506368 42.243725 
L 404.506368 42.217114 
L 405.220608 42.110669 
L 405.25632 42.030835 
L 405.792 41.92439 
L 405.863424 41.871168 
L 407.149056 41.764723 
L 407.256192 41.68489 
L 408.256128 41.578445 
L 408.256128 41.551834 
L 414.72 41.472 
L 414.72 41.472 
" style="fill:none;stroke:#0000ff;stroke-linecap:square;stroke-width:1.5;"/>
   </g>
   <g id="patch_3">
    <path d="M 57.6 307.584 
L 57.6 41.472 
" style="fill:none;stroke:#000000;stroke-linecap:square;stroke-linejoin:miter;stroke-width:0.8;"/>
   </g>
   <g id="patch_4">
    <path d="M 414.72 307.584 
L 414.72 41.472 
" style="fill:none;stroke:#000000;stroke-linecap:square;stroke-linejoin:miter;stroke-width:0.8;"/>
   </g>
   <g id="patch_5">
    <path d="M 57.6 307.584 
L 414.72 307.584 
" style="fill:none;stroke:#000000;stroke-linecap:square;stroke-linejoin:miter;stroke-width:0.8;"/>
   </g>
   <g id="patch_6">
    <path d="M 57.6 41.472 
L 414.72 41.472 
" style="fill:none;stroke:#000000;stroke-linecap:square;stroke-linejoin:miter;stroke-width:0.8;"/>
   </g>
   <g id="text_15">
    <!-- ROC of Membership Inference Attack -->
    <g transform="translate(125.235 35.472)scale(0.12 -0.12)">
     <defs>
      <path d="M 39.40625 66.21875 
Q 28.65625 66.21875 22.328125 58.203125 
Q 16.015625 50.203125 16.015625 36.375 
Q 16.015625 22.609375 22.328125 14.59375 
Q 28.65625 6.59375 39.40625 6.59375 
Q 50.140625 6.59375 56.421875 14.59375 
Q 62.703125 22.609375 62.703125 36.375 
Q 62.703125 50.203125 56.421875 58.203125 
Q 50.140625 66.21875 39.40625 66.21875 
z
M 39.40625 74.21875 
Q 54.734375 74.21875 63.90625 63.9375 
Q 73.09375 53.65625 73.09375 36.375 
Q 73.09375 19.140625 63.90625 8.859375 
Q 54.734375 -1.421875 39.40625 -1.421875 
Q 24.03125 -1.421875 14.8125 8.828125 
Q 5.609375 19.09375 5.609375 36.375 
Q 5.609375 53.65625 14.8125 63.9375 
Q 24.03125 74.21875 39.40625 74.21875 
z
" id="DejaVuSans-79"/>
      <path d="M 64.40625 67.28125 
L 64.40625 56.890625 
Q 59.421875 61.53125 53.78125 63.8125 
Q 48.140625 66.109375 41.796875 66.109375 
Q 29.296875 66.109375 22.65625 58.46875 
Q 16.015625 50.828125 16.015625 36.375 
Q 16.015625 21.96875 22.65625 14.328125 
Q 29.296875 6.6875 41.796875 6.6875 
Q 48.140625 6.6875 53.78125 8.984375 
Q 59.421875 11.28125 64.40625 15.921875 
L 64.40625 5.609375 
Q 59.234375 2.09375 53.4375 0.328125 
Q 47.65625 -1.421875 41.21875 -1.421875 
Q 24.65625 -1.421875 15.125 8.703125 
Q 5.609375 18.84375 5.609375 36.375 
Q 5.609375 53.953125 15.125 64.078125 
Q 24.65625 74.21875 41.21875 74.21875 
Q 47.75 74.21875 53.53125 72.484375 
Q 59.328125 70.75 64.40625 67.28125 
z
" id="DejaVuSans-67"/>
      <path d="M 37.109375 75.984375 
L 37.109375 68.5 
L 28.515625 68.5 
Q 23.6875 68.5 21.796875 66.546875 
Q 19.921875 64.59375 19.921875 59.515625 
L 19.921875 54.6875 
L 34.71875 54.6875 
L 34.71875 47.703125 
L 19.921875 47.703125 
L 19.921875 0 
L 10.890625 0 
L 10.890625 47.703125 
L 2.296875 47.703125 
L 2.296875 54.6875 
L 10.890625 54.6875 
L 10.890625 58.5 
Q 10.890625 67.625 15.140625 71.796875 
Q 19.390625 75.984375 28.609375 75.984375 
z
" id="DejaVuSans-102"/>
      <path d="M 9.8125 72.90625 
L 24.515625 72.90625 
L 43.109375 23.296875 
L 61.8125 72.90625 
L 76.515625 72.90625 
L 76.515625 0 
L 66.890625 0 
L 66.890625 64.015625 
L 48.09375 14.015625 
L 38.1875 14.015625 
L 19.390625 64.015625 
L 19.390625 0 
L 9.8125 0 
z
" id="DejaVuSans-77"/>
      <path d="M 52 44.1875 
Q 55.375 50.25 60.0625 53.125 
Q 64.75 56 71.09375 56 
Q 79.640625 56 84.28125 50.015625 
Q 88.921875 44.046875 88.921875 33.015625 
L 88.921875 0 
L 79.890625 0 
L 79.890625 32.71875 
Q 79.890625 40.578125 77.09375 44.375 
Q 74.3125 48.1875 68.609375 48.1875 
Q 61.625 48.1875 57.5625 43.546875 
Q 53.515625 38.921875 53.515625 30.90625 
L 53.515625 0 
L 44.484375 0 
L 44.484375 32.71875 
Q 44.484375 40.625 41.703125 44.40625 
Q 38.921875 48.1875 33.109375 48.1875 
Q 26.21875 48.1875 22.15625 43.53125 
Q 18.109375 38.875 18.109375 30.90625 
L 18.109375 0 
L 9.078125 0 
L 9.078125 54.6875 
L 18.109375 54.6875 
L 18.109375 46.1875 
Q 21.1875 51.21875 25.484375 53.609375 
Q 29.78125 56 35.6875 56 
Q 41.65625 56 45.828125 52.96875 
Q 50 49.953125 52 44.1875 
z
" id="DejaVuSans-109"/>
      <path d="M 48.6875 27.296875 
Q 48.6875 37.203125 44.609375 42.84375 
Q 40.53125 48.484375 33.40625 48.484375 
Q 26.265625 48.484375 22.1875 42.84375 
Q 18.109375 37.203125 18.109375 27.296875 
Q 18.109375 17.390625 22.1875 11.75 
Q 26.265625 6.109375 33.40625 6.109375 
Q 40.53125 6.109375 44.609375 11.75 
Q 48.6875 17.390625 48.6875 27.296875 
z
M 18.109375 46.390625 
Q 20.953125 51.265625 25.265625 53.625 
Q 29.59375 56 35.59375 56 
Q 45.5625 56 51.78125 48.09375 
Q 58.015625 40.1875 58.015625 27.296875 
Q 58.015625 14.40625 51.78125 6.484375 
Q 45.5625 -1.421875 35.59375 -1.421875 
Q 29.59375 -1.421875 25.265625 0.953125 
Q 20.953125 3.328125 18.109375 8.203125 
L 18.109375 0 
L 9.078125 0 
L 9.078125 75.984375 
L 18.109375 75.984375 
z
" id="DejaVuSans-98"/>
      <path d="M 54.890625 33.015625 
L 54.890625 0 
L 45.90625 0 
L 45.90625 32.71875 
Q 45.90625 40.484375 42.875 44.328125 
Q 39.84375 48.1875 33.796875 48.1875 
Q 26.515625 48.1875 22.3125 43.546875 
Q 18.109375 38.921875 18.109375 30.90625 
L 18.109375 0 
L 9.078125 0 
L 9.078125 75.984375 
L 18.109375 75.984375 
L 18.109375 46.1875 
Q 21.34375 51.125 25.703125 53.5625 
Q 30.078125 56 35.796875 56 
Q 45.21875 56 50.046875 50.171875 
Q 54.890625 44.34375 54.890625 33.015625 
z
" id="DejaVuSans-104"/>
      <path d="M 18.109375 8.203125 
L 18.109375 -20.796875 
L 9.078125 -20.796875 
L 9.078125 54.6875 
L 18.109375 54.6875 
L 18.109375 46.390625 
Q 20.953125 51.265625 25.265625 53.625 
Q 29.59375 56 35.59375 56 
Q 45.5625 56 51.78125 48.09375 
Q 58.015625 40.1875 58.015625 27.296875 
Q 58.015625 14.40625 51.78125 6.484375 
Q 45.5625 -1.421875 35.59375 -1.421875 
Q 29.59375 -1.421875 25.265625 0.953125 
Q 20.953125 3.328125 18.109375 8.203125 
z
M 48.6875 27.296875 
Q 48.6875 37.203125 44.609375 42.84375 
Q 40.53125 48.484375 33.40625 48.484375 
Q 26.265625 48.484375 22.1875 42.84375 
Q 18.109375 37.203125 18.109375 27.296875 
Q 18.109375 17.390625 22.1875 11.75 
Q 26.265625 6.109375 33.40625 6.109375 
Q 40.53125 6.109375 44.609375 11.75 
Q 48.6875 17.390625 48.6875 27.296875 
z
" id="DejaVuSans-112"/>
      <path d="M 9.8125 72.90625 
L 19.671875 72.90625 
L 19.671875 0 
L 9.8125 0 
z
" id="DejaVuSans-73"/>
      <path d="M 54.890625 33.015625 
L 54.890625 0 
L 45.90625 0 
L 45.90625 32.71875 
Q 45.90625 40.484375 42.875 44.328125 
Q 39.84375 48.1875 33.796875 48.1875 
Q 26.515625 48.1875 22.3125 43.546875 
Q 18.109375 38.921875 18.109375 30.90625 
L 18.109375 0 
L 9.078125 0 
L 9.078125 54.6875 
L 18.109375 54.6875 
L 18.109375 46.1875 
Q 21.34375 51.125 25.703125 53.5625 
Q 30.078125 56 35.796875 56 
Q 45.21875 56 50.046875 50.171875 
Q 54.890625 44.34375 54.890625 33.015625 
z
" id="DejaVuSans-110"/>
      <path d="M 48.78125 52.59375 
L 48.78125 44.1875 
Q 44.96875 46.296875 41.140625 47.34375 
Q 37.3125 48.390625 33.40625 48.390625 
Q 24.65625 48.390625 19.8125 42.84375 
Q 14.984375 37.3125 14.984375 27.296875 
Q 14.984375 17.28125 19.8125 11.734375 
Q 24.65625 6.203125 33.40625 6.203125 
Q 37.3125 6.203125 41.140625 7.25 
Q 44.96875 8.296875 48.78125 10.40625 
L 48.78125 2.09375 
Q 45.015625 0.34375 40.984375 -0.53125 
Q 36.96875 -1.421875 32.421875 -1.421875 
Q 20.0625 -1.421875 12.78125 6.34375 
Q 5.515625 14.109375 5.515625 27.296875 
Q 5.515625 40.671875 12.859375 48.328125 
Q 20.21875 56 33.015625 56 
Q 37.15625 56 41.109375 55.140625 
Q 45.0625 54.296875 48.78125 52.59375 
z
" id="DejaVuSans-99"/>
      <path d="M 34.1875 63.1875 
L 20.796875 26.90625 
L 47.609375 26.90625 
z
M 28.609375 72.90625 
L 39.796875 72.90625 
L 67.578125 0 
L 57.328125 0 
L 50.6875 18.703125 
L 17.828125 18.703125 
L 11.1875 0 
L 0.78125 0 
z
" id="DejaVuSans-65"/>
      <path d="M 9.078125 75.984375 
L 18.109375 75.984375 
L 18.109375 31.109375 
L 44.921875 54.6875 
L 56.390625 54.6875 
L 27.390625 29.109375 
L 57.625 0 
L 45.90625 0 
L 18.109375 26.703125 
L 18.109375 0 
L 9.078125 0 
z
" id="DejaVuSans-107"/>
     </defs>
     <use xlink:href="#DejaVuSans-82"/>
     <use x="69.482422" xlink:href="#DejaVuSans-79"/>
     <use x="148.193359" xlink:href="#DejaVuSans-67"/>
     <use x="218.017578" xlink:href="#DejaVuSans-32"/>
     <use x="249.804688" xlink:href="#DejaVuSans-111"/>
     <use x="310.986328" xlink:href="#DejaVuSans-102"/>
     <use x="346.191406" xlink:href="#DejaVuSans-32"/>
     <use x="377.978516" xlink:href="#DejaVuSans-77"/>
     <use x="464.257812" xlink:href="#DejaVuSans-101"/>
     <use x="525.78125" xlink:href="#DejaVuSans-109"/>
     <use x="623.193359" xlink:href="#DejaVuSans-98"/>
     <use x="686.669922" xlink:href="#DejaVuSans-101"/>
     <use x="748.193359" xlink:href="#DejaVuSans-114"/>
     <use x="789.306641" xlink:href="#DejaVuSans-115"/>
     <use x="841.40625" xlink:href="#DejaVuSans-104"/>
     <use x="904.785156" xlink:href="#DejaVuSans-105"/>
     <use x="932.568359" xlink:href="#DejaVuSans-112"/>
     <use x="996.044922" xlink:href="#DejaVuSans-32"/>
     <use x="1027.832031" xlink:href="#DejaVuSans-73"/>
     <use x="1057.324219" xlink:href="#DejaVuSans-110"/>
     <use x="1120.703125" xlink:href="#DejaVuSans-102"/>
     <use x="1155.908203" xlink:href="#DejaVuSans-101"/>
     <use x="1217.431641" xlink:href="#DejaVuSans-114"/>
     <use x="1256.294922" xlink:href="#DejaVuSans-101"/>
     <use x="1317.818359" xlink:href="#DejaVuSans-110"/>
     <use x="1381.197266" xlink:href="#DejaVuSans-99"/>
     <use x="1436.177734" xlink:href="#DejaVuSans-101"/>
     <use x="1497.701172" xlink:href="#DejaVuSans-32"/>
     <use x="1529.488281" xlink:href="#DejaVuSans-65"/>
     <use x="1596.146484" xlink:href="#DejaVuSans-116"/>
     <use x="1635.355469" xlink:href="#DejaVuSans-116"/>
     <use x="1674.564453" xlink:href="#DejaVuSans-97"/>
     <use x="1735.84375" xlink:href="#DejaVuSans-99"/>
     <use x="1790.824219" xlink:href="#DejaVuSans-107"/>
    </g>
   </g>
   <g id="legend_1">
    <g id="patch_7">
     <path d="M 319.7825 302.584 
L 407.72 302.584 
Q 409.72 302.584 409.72 300.584 
L 409.72 286.905875 
Q 409.72 284.905875 407.72 284.905875 
L 319.7825 284.905875 
Q 317.7825 284.905875 317.7825 286.905875 
L 317.7825 300.584 
Q 317.7825 302.584 319.7825 302.584 
z
" style="fill:#ffffff;opacity:0.8;stroke:#cccccc;stroke-linejoin:miter;"/>
    </g>
    <g id="line2d_15">
     <path d="M 321.7825 293.004312 
L 341.7825 293.004312 
" style="fill:none;stroke:#0000ff;stroke-linecap:square;stroke-width:1.5;"/>
    </g>
    <g id="line2d_16"/>
    <g id="text_16">
     <!-- AUC=0.42 -->
     <g transform="translate(349.7825 296.504312)scale(0.1 -0.1)">
      <defs>
       <path d="M 53.421875 13.28125 
L 24.03125 13.28125 
L 19.390625 0 
L 0.484375 0 
L 27.484375 72.90625 
L 49.90625 72.90625 
L 76.90625 0 
L 58.015625 0 
z
M 28.71875 26.8125 
L 48.6875 26.8125 
L 38.71875 55.8125 
z
" id="DejaVuSans-Bold-65"/>
       <path d="M 9.1875 72.90625 
L 27.984375 72.90625 
L 27.984375 29.203125 
Q 27.984375 20.171875 30.9375 16.28125 
Q 33.890625 12.40625 40.578125 12.40625 
Q 47.3125 12.40625 50.265625 16.28125 
Q 53.21875 20.171875 53.21875 29.203125 
L 53.21875 72.90625 
L 72.015625 72.90625 
L 72.015625 29.203125 
Q 72.015625 13.71875 64.25 6.140625 
Q 56.5 -1.421875 40.578125 -1.421875 
Q 24.703125 -1.421875 16.9375 6.140625 
Q 9.1875 13.71875 9.1875 29.203125 
z
" id="DejaVuSans-Bold-85"/>
       <path d="M 67 4 
Q 61.8125 1.3125 56.203125 -0.046875 
Q 50.59375 -1.421875 44.484375 -1.421875 
Q 26.265625 -1.421875 15.625 8.765625 
Q 4.984375 18.953125 4.984375 36.375 
Q 4.984375 53.859375 15.625 64.03125 
Q 26.265625 74.21875 44.484375 74.21875 
Q 50.59375 74.21875 56.203125 72.84375 
Q 61.8125 71.484375 67 68.796875 
L 67 53.71875 
Q 61.765625 57.28125 56.6875 58.9375 
Q 51.609375 60.59375 46 60.59375 
Q 35.9375 60.59375 30.171875 54.140625 
Q 24.421875 47.703125 24.421875 36.375 
Q 24.421875 25.09375 30.171875 18.640625 
Q 35.9375 12.203125 46 12.203125 
Q 51.609375 12.203125 56.6875 13.859375 
Q 61.765625 15.53125 67 19.09375 
z
" id="DejaVuSans-Bold-67"/>
       <path d="M 10.59375 48.1875 
L 73.1875 48.1875 
L 73.1875 36.71875 
L 10.59375 36.71875 
z
M 10.59375 25.984375 
L 73.1875 25.984375 
L 73.1875 14.40625 
L 10.59375 14.40625 
z
" id="DejaVuSans-Bold-61"/>
      </defs>
      <use xlink:href="#DejaVuSans-Bold-65"/>
      <use x="74.267578" xlink:href="#DejaVuSans-Bold-85"/>
      <use x="155.46875" xlink:href="#DejaVuSans-Bold-67"/>
      <use x="228.857422" xlink:href="#DejaVuSans-Bold-61"/>
      <use x="312.646484" xlink:href="#DejaVuSans-Bold-48"/>
      <use x="382.226562" xlink:href="#DejaVuSans-Bold-46"/>
      <use x="420.214844" xlink:href="#DejaVuSans-Bold-52"/>
      <use x="489.794922" xlink:href="#DejaVuSans-Bold-50"/>
     </g>
    </g>
   </g>
  </g>
 </g>
 <defs>
  <clipPath id="pe8319d71f3">
   <rect height="266.112" width="357.12" x="57.6" y="41.472"/>
  </clipPath>
 </defs>
</svg>
