<?xml version="1.0" encoding="UTF-8" standalone="no"?><svg xmlns="http://www.w3.org/2000/svg" xmlns:xlink="http://www.w3.org/1999/xlink" contentScriptType="application/ecmascript" contentStyleType="text/css" height="287px" preserveAspectRatio="none" style="width:680px;height:287px;" version="1.1" viewBox="0 0 680 287" width="680px" zoomAndPan="magnify"><defs><filter height="300%" id="fg5bxwsu1ynss" width="300%" x="-1" y="-1"><feGaussianBlur result="blurOut" stdDeviation="2.0"/><feColorMatrix in="blurOut" result="blurOut2" type="matrix" values="0 0 0 0 0 0 0 0 0 0 0 0 0 0 0 0 0 0 .4 0"/><feOffset dx="4.0" dy="4.0" in="blurOut2" result="blurOut3"/><feBlend in="SourceGraphic" in2="blurOut3" mode="normal"/></filter></defs><g><ellipse cx="181" cy="16" fill="#000000" filter="url(#fg5bxwsu1ynss)" rx="10" ry="10" style="stroke:none;stroke-width:1.0;"/><rect fill="#FEFECE" filter="url(#fg5bxwsu1ynss)" height="36.3887" rx="12.5" ry="12.5" style="stroke:#A80036;stroke-width:1.5;" width="348" x="7" y="67"/><text fill="#000000" font-family="sans-serif" font-size="12" lengthAdjust="spacingAndGlyphs" textLength="328" x="17" y="90.752">0. Train local model without downloading global parameters</text><path d="M375,71 L375,81 L355.01,85 L375,89 L375,98.7544 A0,0 0 0 0 375,98.7544 L671,98.7544 A0,0 0 0 0 671,98.7544 L671,81 L661,71 L375,71 A0,0 0 0 0 375,71 " fill="#FBFB77" filter="url(#fg5bxwsu1ynss)" style="stroke:#A80036;stroke-width:1.0;"/><path d="M661,71 L661,81 L671,81 L661,71 " fill="#FBFB77" style="stroke:#A80036;stroke-width:1.0;"/><text fill="#000000" font-family="sans-serif" font-size="13" lengthAdjust="spacingAndGlyphs" textLength="275" x="381" y="90.8979">Federated learning environment just established</text><rect fill="#FEFECE" filter="url(#fg5bxwsu1ynss)" height="36.3887" rx="12.5" ry="12.5" style="stroke:#A80036;stroke-width:1.5;" width="285" x="38.5" y="144"/><text fill="#000000" font-family="sans-serif" font-size="12" lengthAdjust="spacingAndGlyphs" textLength="265" x="48.5" y="167.752">1. Upload local parameters to central aggregator</text><rect fill="#FEFECE" filter="url(#fg5bxwsu1ynss)" height="36.3887" rx="12.5" ry="12.5" style="stroke:#A80036;stroke-width:1.5;" width="324" x="164" y="237"/><text fill="#000000" font-family="sans-serif" font-size="12" lengthAdjust="spacingAndGlyphs" textLength="304" x="174" y="260.752">2. Download global parameters from central aggregator</text><rect fill="#FEFECE" filter="url(#fg5bxwsu1ynss)" height="36.3887" rx="12.5" ry="12.5" style="stroke:#A80036;stroke-width:1.5;" width="257" x="343.5" y="144"/><text fill="#000000" font-family="sans-serif" font-size="12" lengthAdjust="spacingAndGlyphs" textLength="237" x="353.5" y="167.752">3. Train local model with global parameters</text><!--MD5=[06c9dfa78b00766b26b06393b6650522]
link start to node1--><path d="M181,26.04 C181,35.16 181,49.61 181,61.8 " fill="none" id="start-to-node1" style="stroke:#A80036;stroke-width:1.0;"/><polygon fill="#A80036" points="181,66.87,185,57.87,181,61.87,177,57.87,181,66.87" style="stroke:#A80036;stroke-width:1.0;"/><!--MD5=[ede45bff198f30e1688a21af6fccdacf]
link node1 to node2--><path d="M181,103.02 C181,113.59 181,127.29 181,138.72 " fill="none" id="node1-to-node2" style="stroke:#A80036;stroke-width:1.0;"/><polygon fill="#A80036" points="181,143.79,185,134.79,181,138.79,177,134.79,181,143.79" style="stroke:#A80036;stroke-width:1.0;"/><!--MD5=[17d2160418b7fcbb69746dd1924a904f]
link node2 to node3--><path d="M208.27,180.12 C232.78,195.5 268.76,218.08 294.49,234.23 " fill="none" id="node2-to-node3" style="stroke:#A80036;stroke-width:1.0;"/><polygon fill="#A80036" points="298.85,236.96,293.3578,228.7847,294.6164,234.2997,289.1014,235.5584,298.85,236.96" style="stroke:#A80036;stroke-width:1.0;"/><text fill="#000000" font-family="sans-serif" font-size="11" lengthAdjust="spacingAndGlyphs" textLength="103" x="267" y="213.606">global attack window</text><!--MD5=[21026256b7b1a310a2a3df14bb5c77eb]
reverse link node4 to node3--><path d="M440.14,182.86 C414.21,199.02 377.97,221.6 353.34,236.96 " fill="none" id="node4-backto-node3" style="stroke:#A80036;stroke-width:1.0;"/><polygon fill="#A80036" points="444.54,180.12,434.7859,181.4832,440.296,182.7636,439.0157,188.2736,444.54,180.12" style="stroke:#A80036;stroke-width:1.0;"/><text fill="#000000" font-family="sans-serif" font-size="11" lengthAdjust="spacingAndGlyphs" textLength="94" x="413" y="213.606">local attack moment</text><!--MD5=[b832fc987583d0498fcdab4cac0d98bb]
reverse link node2 to node4--><path d="M328.89,162 C333.71,162 338.54,162 343.36,162 " fill="none" id="node2-backto-node4" style="stroke:#A80036;stroke-width:1.0;"/><polygon fill="#A80036" points="323.66,162,332.66,166,328.66,162,332.66,158,323.66,162" style="stroke:#A80036;stroke-width:1.0;"/><!--MD5=[02c3708f6b3237fb8f564e86c157de2e]
@startuml
(*) - -> "0. Train local model without downloading global parameters" as node1
note right: Federated learning environment just established
node1 - -> "1. Upload local parameters to central aggregator" as node2
node2 -right->[global attack window] "2. Download global parameters from central aggregator" as node3
node3 -up->[local attack moment] "3. Train local model with global parameters" as node4
node4 -left-> node2
@enduml

PlantUML version 1.2020.22(Sun Dec 06 17:36:27 CST 2020)
(GPL source distribution)
Java Runtime: Java(TM) SE Runtime Environment
JVM: Java HotSpot(TM) 64-Bit Server VM
Default Encoding: GBK
Language: zh
Country: CN
--></g></svg>