<?xml version="1.0" encoding="UTF-8" standalone="no"?><svg xmlns="http://www.w3.org/2000/svg" xmlns:xlink="http://www.w3.org/1999/xlink" contentScriptType="application/ecmascript" contentStyleType="text/css" height="351px" preserveAspectRatio="none" style="width:417px;height:351px;" version="1.1" viewBox="0 0 417 351" width="417px" zoomAndPan="magnify"><defs><filter height="300%" id="f1af3h2s1iut0j" width="300%" x="-1" y="-1"><feGaussianBlur result="blurOut" stdDeviation="2.0"/><feColorMatrix in="blurOut" result="blurOut2" type="matrix" values="0 0 0 0 0 0 0 0 0 0 0 0 0 0 0 0 0 0 .4 0"/><feOffset dx="4.0" dy="4.0" in="blurOut2" result="blurOut3"/><feBlend in="SourceGraphic" in2="blurOut3" mode="normal"/></filter></defs><g><line style="stroke:#A80036;stroke-width:1.0;stroke-dasharray:5.0,5.0;" x1="41" x2="41" y1="91.1201" y2="264.1377"/><line style="stroke:#A80036;stroke-width:1.0;stroke-dasharray:5.0,5.0;" x1="223.5" x2="223.5" y1="91.1201" y2="264.1377"/><text fill="#000000" font-family="sans-serif" font-size="14" lengthAdjust="spacingAndGlyphs" textLength="67" x="5" y="88.0439">Participant</text><ellipse cx="41.5" cy="15" fill="#FEFECE" filter="url(#f1af3h2s1iut0j)" rx="8" ry="8" style="stroke:#A80036;stroke-width:2.0;"/><path d="M41.5,23 L41.5,50 M28.5,31 L54.5,31 M41.5,50 L28.5,65 M41.5,50 L54.5,65 " fill="none" filter="url(#f1af3h2s1iut0j)" style="stroke:#A80036;stroke-width:2.0;"/><text fill="#000000" font-family="sans-serif" font-size="14" lengthAdjust="spacingAndGlyphs" textLength="67" x="5" y="279.1816">Participant</text><ellipse cx="41.5" cy="292.2578" fill="#FEFECE" filter="url(#f1af3h2s1iut0j)" rx="8" ry="8" style="stroke:#A80036;stroke-width:2.0;"/><path d="M41.5,300.2578 L41.5,327.2578 M28.5,308.2578 L54.5,308.2578 M41.5,327.2578 L28.5,342.2578 M41.5,327.2578 L54.5,342.2578 " fill="none" filter="url(#f1af3h2s1iut0j)" style="stroke:#A80036;stroke-width:2.0;"/><text fill="#000000" font-family="sans-serif" font-size="14" lengthAdjust="spacingAndGlyphs" textLength="120" x="160.5" y="88.0439">Central aggregator</text><path d="M205.5,36 C205.5,26 223.5,26 223.5,26 C223.5,26 241.5,26 241.5,36 L241.5,62 C241.5,72 223.5,72 223.5,72 C223.5,72 205.5,72 205.5,62 L205.5,36 " fill="#FEFECE" filter="url(#f1af3h2s1iut0j)" style="stroke:#000000;stroke-width:1.5;"/><path d="M205.5,36 C205.5,46 223.5,46 223.5,46 C223.5,46 241.5,46 241.5,36 " fill="none" style="stroke:#000000;stroke-width:1.5;"/><text fill="#000000" font-family="sans-serif" font-size="14" lengthAdjust="spacingAndGlyphs" textLength="120" x="160.5" y="279.1816">Central aggregator</text><path d="M205.5,292.2578 C205.5,282.2578 223.5,282.2578 223.5,282.2578 C223.5,282.2578 241.5,282.2578 241.5,292.2578 L241.5,318.2578 C241.5,328.2578 223.5,328.2578 223.5,328.2578 C223.5,328.2578 205.5,328.2578 205.5,318.2578 L205.5,292.2578 " fill="#FEFECE" filter="url(#f1af3h2s1iut0j)" style="stroke:#000000;stroke-width:1.5;"/><path d="M205.5,292.2578 C205.5,302.2578 223.5,302.2578 223.5,302.2578 C223.5,302.2578 241.5,302.2578 241.5,292.2578 " fill="none" style="stroke:#000000;stroke-width:1.5;"/><polygon fill="#A80036" points="211.5,120.8745,221.5,124.8745,211.5,128.8745,215.5,124.8745" style="stroke:#A80036;stroke-width:1.0;"/><line style="stroke:#A80036;stroke-width:1.0;" x1="41.5" x2="217.5" y1="124.8745" y2="124.8745"/><text fill="#000000" font-family="sans-serif" font-size="13" font-weight="bold" lengthAdjust="spacingAndGlyphs" textLength="7" x="48.5" y="120.0181">1</text><text fill="#000000" font-family="sans-serif" font-size="13" lengthAdjust="spacingAndGlyphs" textLength="140" x="59.5" y="120.0181">Upload local parameters</text><line style="stroke:#A80036;stroke-width:1.0;" x1="223.5" x2="265.5" y1="156.6289" y2="156.6289"/><line style="stroke:#A80036;stroke-width:1.0;" x1="265.5" x2="265.5" y1="156.6289" y2="169.6289"/><line style="stroke:#A80036;stroke-width:1.0;" x1="224.5" x2="265.5" y1="169.6289" y2="169.6289"/><polygon fill="#A80036" points="234.5,165.6289,224.5,169.6289,234.5,173.6289,230.5,169.6289" style="stroke:#A80036;stroke-width:1.0;"/><text fill="#000000" font-family="sans-serif" font-size="13" font-weight="bold" lengthAdjust="spacingAndGlyphs" textLength="7" x="230.5" y="151.7725">2</text><text fill="#000000" font-family="sans-serif" font-size="13" lengthAdjust="spacingAndGlyphs" textLength="169" x="241.5" y="151.7725">Accumulate local parameters</text><line style="stroke:#A80036;stroke-width:1.0;" x1="223.5" x2="265.5" y1="201.3833" y2="201.3833"/><line style="stroke:#A80036;stroke-width:1.0;" x1="265.5" x2="265.5" y1="201.3833" y2="214.3833"/><line style="stroke:#A80036;stroke-width:1.0;" x1="224.5" x2="265.5" y1="214.3833" y2="214.3833"/><polygon fill="#A80036" points="234.5,210.3833,224.5,214.3833,234.5,218.3833,230.5,214.3833" style="stroke:#A80036;stroke-width:1.0;"/><text fill="#000000" font-family="sans-serif" font-size="13" font-weight="bold" lengthAdjust="spacingAndGlyphs" textLength="7" x="230.5" y="196.5269">3</text><text fill="#000000" font-family="sans-serif" font-size="13" lengthAdjust="spacingAndGlyphs" textLength="148" x="241.5" y="196.5269">Update global parameters</text><polygon fill="#A80036" points="52.5,242.1377,42.5,246.1377,52.5,250.1377,48.5,246.1377" style="stroke:#A80036;stroke-width:1.0;"/><line style="stroke:#A80036;stroke-width:1.0;" x1="46.5" x2="222.5" y1="246.1377" y2="246.1377"/><text fill="#000000" font-family="sans-serif" font-size="13" font-weight="bold" lengthAdjust="spacingAndGlyphs" textLength="7" x="58.5" y="241.2813">4</text><text fill="#000000" font-family="sans-serif" font-size="13" lengthAdjust="spacingAndGlyphs" textLength="147" x="69.5" y="241.2813">Assign global parameters</text><!--MD5=[c97aa9abbda24687167915868ae38c14]
@startuml
actor Participant
database "Central aggregator"
autonumber
Participant -> "Central aggregator": Upload local parameters
"Central aggregator" -> "Central aggregator": Accumulate local parameters
"Central aggregator" -> "Central aggregator": Update global parameters
"Central aggregator" -> Participant: Assign global parameters
@enduml

PlantUML version 1.2020.22(Sun Dec 06 17:36:27 CST 2020)
(GPL source distribution)
Java Runtime: Java(TM) SE Runtime Environment
JVM: Java HotSpot(TM) 64-Bit Server VM
Default Encoding: GBK
Language: zh
Country: CN
--></g></svg>